<?xml version="1.0" encoding="UTF-8"?><svg id="Capa_8" xmlns="http://www.w3.org/2000/svg" viewBox="0 0 1027 823.24"><defs><style>.cls-1{stroke:#b9e4c9;}.cls-1,.cls-2,.cls-3,.cls-4,.cls-5{fill:none;stroke-miterlimit:10;}.cls-1,.cls-2,.cls-3,.cls-5{stroke-width:3px;}.cls-2,.cls-3,.cls-5{stroke:#5b7fbd;}.cls-6,.cls-7{font-size:17px;}.cls-6,.cls-7,.cls-8,.cls-9{font-family:MyriadPro-Regular, 'Myriad Pro';}.cls-6,.cls-8{fill:#379570;}.cls-7,.cls-9{fill:#5b7fbd;}.cls-10{letter-spacing:0em;}.cls-11{letter-spacing:0em;}.cls-12{letter-spacing:0em;}.cls-3{stroke-dasharray:0 5;}.cls-13{fill:#b9e4c9;}.cls-14{letter-spacing:-.01em;}.cls-15{letter-spacing:-.02em;}.cls-4{stroke:#379570;stroke-width:5px;}.cls-16{letter-spacing:0em;}.cls-17{letter-spacing:-.01em;}.cls-5{stroke-dasharray:0 0 5.14 5.14;}.cls-18{letter-spacing:0em;}.cls-19{letter-spacing:0em;}.cls-20{letter-spacing:0em;}.cls-21{letter-spacing:0em;}.cls-22{letter-spacing:0em;}.cls-23{letter-spacing:0em;}.cls-24{letter-spacing:.01em;}.cls-25{letter-spacing:0em;}.cls-8{font-size:23px;}.cls-26{letter-spacing:0em;}.cls-27{letter-spacing:0em;}.cls-28{letter-spacing:-.03em;}.cls-29{letter-spacing:-.03em;}.cls-30{letter-spacing:-.03em;}.cls-31{letter-spacing:.01em;}.cls-32{letter-spacing:-.05em;}.cls-9{font-size:18px;}.cls-33{letter-spacing:-.03em;}</style></defs><circle class="cls-13" cx="19" cy="655.24" r="19"/><circle class="cls-13" cx="705" cy="653.24" r="19"/><text class="cls-8" transform="translate(13.09 664.78)"><tspan x="0" y="0">4</tspan></text><path class="cls-1" d="M379.89,611.24l470-266V189.58s-43.5,8.16-66.5,14.16-61,26-61,26l-18.88,20.7-28.12,52.3s-34,48.41-60.5,42.7c-26.5-5.7-54.5-13.7-54.5-13.7l-27,9-6,65-26,48-54,45-26,36-41.5,27.1L31.11,358.24v52.9l348.77,200.1Z"/><path class="cls-4" d="M376.45,175.24s-29.46,43-43.02,38-20.14-7.89-20.14-7.89c0,0-37.41-5.11-37.41,16.89s-11.91,32.95-11.91,32.95c0,0-25.59,17.26-18.09,29.4s25,52.82,25,52.82c0,0,7.5,6.33,0,20.83s0,34,0,34c0,0,4.5,31.5,18,37"/><path class="cls-3" d="M550.89,166.03s23.59-52.21-12.45-62.25"/><path class="cls-3" d="M473.77,103.78s-25.39,44.96-53.39,38.96"/><path class="cls-1" d="M829.52,193.55l-96.13-60.81-38.9-5.12-57.1-52.88-37-13-32-9-30-11L476.39,1.74l-35.89,19.1-45.11,20.9-45,33-18,30-46.23-7.09-37.77,21.09-47,23-39,63s-2,51-19,58-29,35-29,35l-46,40-37.27,20.5"/><circle class="cls-13" cx="502.89" cy="94.24" r="19"/><circle class="cls-13" cx="392.89" cy="156.24" r="19"/><circle class="cls-13" cx="531.89" cy="199.24" r="19"/><circle class="cls-13" cx="297.89" cy="194.24" r="19"/><circle class="cls-13" cx="264.89" cy="311.24" r="19"/><circle class="cls-13" cx="270.89" cy="411.24" r="19"/><g><line class="cls-2" x1="544.89" y1="228.24" x2="545.65" y2="230.62"/><polyline class="cls-5" points="547.23 235.51 554.89 259.24 572.89 279.24 599.89 296.24 632.43 313.83"/><line class="cls-2" x1="634.69" y1="315.05" x2="636.89" y2="316.24"/></g><circle class="cls-3" cx="532" cy="201.24" r="28.5"/><text class="cls-7" transform="translate(568.04 186.72)"><tspan x="0" y="0">Choque</tspan></text><text class="cls-7" transform="translate(538.04 96.72)"><tspan class="cls-17" x="0" y="0">C</tspan><tspan x="9.67" y="0">ola</tspan></text><text class="cls-7" transform="translate(397.05 191.72)"><tspan class="cls-30" x="0" y="0">F</tspan><tspan x="7.68" y="0">uselaje</tspan></text><text class="cls-6" transform="translate(173.05 252.72)"><tspan x="0" y="0">Glaciar</tspan></text><text class="cls-6" transform="translate(152.05 389.72)"><tspan class="cls-18" x="0" y="0">R</tspan><tspan x="9.32" y="0">ío </tspan><tspan class="cls-24" x="0" y="20.4">A</tspan><tspan x="10.64" y="20.4">zuf</tspan><tspan class="cls-26" x="32.25" y="20.4">r</tspan><tspan x="37.64" y="20.4">e</tspan></text><text class="cls-6" transform="translate(447.05 335.31)"><tspan class="cls-29" x="0" y="0">V</tspan><tspan x="8.93" y="0">olcan </tspan><tspan class="cls-14" x="0" y="20.4">T</tspan><tspan x="8.25" y="20.4">ingui</tspan><tspan class="cls-11" x="44.5" y="20.4">r</tspan><tspan x="50.13" y="20.4">i</tspan><tspan class="cls-26" x="54.11" y="20.4">r</tspan><tspan x="59.5" y="20.4">ca</tspan></text><polyline class="cls-2" points="823.39 373.24 860.39 350.74 862.88 175.24 815.27 184.03"/><line class="cls-2" x1="862.88" y1="224.31" x2="877.34" y2="224.31"/><line class="cls-2" x1="862.88" y1="175.31" x2="877.34" y2="175.31"/><line class="cls-2" x1="861.88" y1="262.31" x2="876.34" y2="262.31"/><line class="cls-2" x1="860.88" y1="304.31" x2="875.34" y2="304.31"/><line class="cls-2" x1="860.88" y1="350.31" x2="875.34" y2="350.31"/><text class="cls-9" transform="translate(883.12 181.69)"><tspan x="0" y="0">4.000 m</tspan></text><text class="cls-9" transform="translate(883.12 230.69)"><tspan x="0" y="0">3.000 m</tspan></text><text class="cls-9" transform="translate(883.12 268.69)"><tspan x="0" y="0">2.000 m</tspan></text><text class="cls-9" transform="translate(882.12 307.69)"><tspan x="0" y="0">1.000 m</tspan></text><text class="cls-9" transform="translate(883.12 355.69)"><tspan class="cls-19" x="0" y="0">N</tspan><tspan x="12.02" y="0">i</tspan><tspan class="cls-27" x="16.24" y="0">v</tspan><tspan x="24.71" y="0">el del mar</tspan></text><text class="cls-8" transform="translate(525.98 208.78)"><tspan x="0" y="0">1</tspan></text><text class="cls-8" transform="translate(496.98 103.78)"><tspan x="0" y="0">2</tspan></text><text class="cls-8" transform="translate(386.98 165.78)"><tspan x="0" y="0">3</tspan></text><text class="cls-8" transform="translate(291.98 203.78)"><tspan x="0" y="0">4</tspan></text><text class="cls-8" transform="translate(257.98 319.78)"><tspan x="0" y="0">5</tspan></text><text class="cls-8" transform="translate(263.98 419.78)"><tspan x="0" y="0">6</tspan></text><text class="cls-8" transform="translate(698.09 661.78)"><tspan x="0" y="0">6</tspan></text><text class="cls-6" transform="translate(55.11 654.61)"><tspan class="cls-23" x="0" y="0">C</tspan><tspan x="9.74" y="0">anessa y </tspan><tspan class="cls-33" x="72.76" y="0">P</tspan><tspan x="81.36" y="0">a</tspan><tspan class="cls-10" x="89.56" y="0">r</tspan><tspan class="cls-25" x="95.18" y="0">r</tspan><tspan x="100.66" y="0">ado llegan a la </tspan><tspan x="0" y="20.4">cumb</tspan><tspan class="cls-26" x="40.83" y="20.4">r</tspan><tspan class="cls-14" x="46.22" y="20.4">e</tspan><tspan x="54.54" y="20.4">, bajan </tspan><tspan class="cls-12" x="104.89" y="20.4">c</tspan><tspan x="112.4" y="20.4">on cue</tspan><tspan class="cls-26" x="160.28" y="20.4">r</tspan><tspan x="165.66" y="20.4">das y </tspan><tspan x="0" y="40.8">siguen por el </tspan><tspan class="cls-21" x="95.44" y="40.8">v</tspan><tspan x="103.55" y="40.8">alle de nie</tspan><tspan class="cls-26" x="175.52" y="40.8">v</tspan><tspan class="cls-14" x="183.53" y="40.8">e</tspan><tspan x="191.84" y="40.8">.</tspan></text><g><circle class="cls-13" cx="358" cy="655.24" r="19"/><text class="cls-8" transform="translate(351.09 663.78)"><tspan x="0" y="0">5</tspan></text><text class="cls-6" transform="translate(385.11 651.61)"><tspan class="cls-28" x="0" y="0">V</tspan><tspan x="8.92" y="0">en por p</tspan><tspan class="cls-11" x="68.32" y="0">r</tspan><tspan x="73.95" y="0">ime</tspan><tspan class="cls-25" x="100.62" y="0">r</tspan><tspan x="106.1" y="0">a </tspan><tspan class="cls-26" x="117.9" y="0">v</tspan><tspan x="125.9" y="0">ez </tspan><tspan class="cls-25" x="145.3" y="0">r</tspan><tspan x="150.77" y="0">ast</tspan><tspan class="cls-26" x="171.33" y="0">r</tspan><tspan x="176.72" y="0">os de </tspan><tspan class="cls-26" x="0" y="20.4">v</tspan><tspan x="8.01" y="20.4">egetación , </tspan><tspan class="cls-21" x="89.45" y="20.4">v</tspan><tspan x="97.56" y="20.4">an en di</tspan><tspan class="cls-26" x="153.92" y="20.4">r</tspan><tspan x="159.31" y="20.4">e</tspan><tspan class="cls-16" x="167.82" y="20.4">c</tspan><tspan x="175.34" y="20.4">ción </tspan><tspan x="0" y="40.8">oes</tspan><tspan class="cls-16" x="24.58" y="40.8">t</tspan><tspan x="30.11" y="40.8">e del </tspan><tspan class="cls-10" x="67.95" y="40.8">r</tspan><tspan x="73.58" y="40.8">í</tspan><tspan class="cls-15" x="77.55" y="40.8">o</tspan><tspan x="86.48" y="40.8">.</tspan></text></g><text class="cls-6" transform="translate(732.11 651.61)"><tspan class="cls-28" x="0" y="0">V</tspan><tspan x="8.92" y="0">en animale</tspan><tspan class="cls-17" x="86.99" y="0">s</tspan><tspan x="93.53" y="0">, por lo que piensan que </tspan><tspan x="0" y="20.4">debe haber ge</tspan><tspan class="cls-21" x="102.9" y="20.4">n</tspan><tspan class="cls-16" x="112.27" y="20.4">t</tspan><tspan x="117.79" y="20.4">e en el se</tspan><tspan class="cls-31" x="182.85" y="20.4">c</tspan><tspan class="cls-16" x="190.69" y="20.4">t</tspan><tspan x="196.21" y="20.4">o</tspan><tspan class="cls-32" x="205.55" y="20.4">r</tspan><tspan x="210.2" y="20.4">.</tspan><tspan class="cls-10" x="0" y="40.8">R</tspan><tspan x="9.21" y="40.8">e</tspan><tspan class="cls-16" x="17.73" y="40.8">c</tspan><tspan x="25.25" y="40.8">ono</tspan><tspan class="cls-12" x="53.35" y="40.8">c</tspan><tspan x="60.86" y="40.8">en a un homb</tspan><tspan class="cls-26" x="159.24" y="40.8">r</tspan><tspan x="164.63" y="40.8">e en caballo y </tspan><tspan x="0" y="61.2">piden </tspan><tspan class="cls-20" x="44.79" y="61.2">a</tspan><tspan x="52.85" y="61.2">yuda. Dan </tspan><tspan class="cls-22" x="127.69" y="61.2">a</tspan><tspan x="135.74" y="61.2">viso de que son los </tspan><tspan x="0" y="81.6">Urugu</tspan><tspan class="cls-20" x="44.79" y="81.6">a</tspan><tspan class="cls-26" x="52.85" y="81.6">y</tspan><tspan x="60.69" y="81.6">os del a</tspan><tspan class="cls-16" x="114.27" y="81.6">c</tspan><tspan x="121.79" y="81.6">cide</tspan><tspan class="cls-21" x="151.49" y="81.6">n</tspan><tspan class="cls-16" x="160.85" y="81.6">t</tspan><tspan class="cls-14" x="166.38" y="81.6">e</tspan><tspan x="174.69" y="81.6">.</tspan></text></svg>