<?xml version="1.0" encoding="UTF-8"?><svg xmlns="http://www.w3.org/2000/svg" viewBox="0 0 993.94 718.62"><defs><style>.cls-1{letter-spacing:.02em;}.cls-2{stroke-dasharray:0 0 2.37 2.37;}.cls-2,.cls-3,.cls-4,.cls-5,.cls-6,.cls-7,.cls-8,.cls-9,.cls-10,.cls-11,.cls-12,.cls-13,.cls-14,.cls-15,.cls-16,.cls-17,.cls-18,.cls-19,.cls-20,.cls-21{fill:none;stroke-miterlimit:10;}.cls-2,.cls-3,.cls-4,.cls-5,.cls-6,.cls-8,.cls-10,.cls-11,.cls-12,.cls-13,.cls-14,.cls-15,.cls-16,.cls-17,.cls-18,.cls-19,.cls-20,.cls-21{stroke:#5b7fbd;}.cls-2,.cls-3,.cls-5,.cls-6,.cls-7,.cls-8,.cls-9,.cls-10,.cls-11,.cls-12,.cls-13,.cls-14,.cls-15,.cls-16,.cls-17,.cls-18,.cls-19,.cls-20,.cls-21{stroke-width:2px;}.cls-22,.cls-23{fill:#379570;}.cls-23{font-family:MyriadPro-Regular, 'Myriad Pro';font-size:15px;}.cls-3{stroke-dasharray:0 0 1.97 1.97;}.cls-24{letter-spacing:0em;}.cls-4,.cls-7{stroke-linecap:round;}.cls-25{letter-spacing:0em;}.cls-26{letter-spacing:0em;}.cls-5{stroke-dasharray:0 0 1.94 1.94;}.cls-6{stroke-dasharray:0 0 1.88 1.88;}.cls-7{stroke:#379570;}.cls-8{stroke-dasharray:0 0 1.97 1.97;}.cls-27{letter-spacing:0em;}.cls-9{stroke:#b9e4c9;}.cls-11{stroke-dasharray:0 0 1.25 1.25;}.cls-28{letter-spacing:0em;}.cls-12{stroke-dasharray:0 0 2.47 2.47;}.cls-29{letter-spacing:-.01em;}.cls-30{letter-spacing:0em;}.cls-13{stroke-dasharray:0 0 1.93 1.93;}.cls-14{stroke-dasharray:0 0 2.03 2.03;}.cls-15{stroke-dasharray:0 0 1.77 1.77;}.cls-16{stroke-dasharray:0 0 1.78 1.78;}.cls-31{letter-spacing:0em;}.cls-17{stroke-dasharray:0 0 2.34 2.34;}.cls-32{letter-spacing:0em;}.cls-18{stroke-dasharray:0 0 2.23 2.23;}.cls-33{letter-spacing:0em;}.cls-34{fill:#8cc3e1;opacity:.55;}.cls-19{stroke-dasharray:0 0 1.4 1.4;}.cls-20{stroke-dasharray:0 0 2.03 2.03;}.cls-21{stroke-dasharray:0 0 2.33 2.33;}</style></defs><g id="Capa_4"><path class="cls-9" d="M98.49,192.63l-3.34,110.09,399.66,206.42,231.25,105.08s107.16,37.47,151.66,89.19l114.31-66.23s-89.48-58.47-124.14-126.26-165.55-114.18-165.55-114.18l-47.53-27.07-26.17,2.46-7.62-13.9-10.91-10.17-17.89-22.19-25,15.01-23.75-5.93-29.93,23.28-14.5,38.52s-11.08,21.84-27.95,19.61-88.12-68.3-88.12-68.3c0,0-3.13-13.72-38.94-45.32s-128.55-64.73-128.55-64.73c0,0-35.22-17.39-48.74-41.13l-68.26-4.23Z"/></g><g id="Capa_7"><circle class="cls-34" cx="566.73" cy="394.62" r="36"/></g><g id="Capa_5"><polyline class="cls-9" points="465.98 429.4 498.04 420.5 498.04 441.54 525.37 441.54 543.6 481.18 597.43 454.24"/><path class="cls-9" d="M581.93,493.42l15.49-18.61,6.8,31.03,11.27-31.03,16.94,41.16,42.25-5.07,32.16,31.31s22.96,3.5,41.92,24.45,31.05,36.14,60.5,47.54"/><path class="cls-9" d="M745.27,441.54s94.91,31.08,157.18,152.08c0,0,17.35,30.99,38.31,35.99"/><polyline class="cls-9" points="98.49 192.63 241.03 168.33 399.64 226.45 477.03 247.14 484.42 293.47 530.84 293.47 609.73 283.62 677.73 332.62 754.25 325.85 771.23 393.5 819.27 393.5 853.73 485.3"/></g><g id="Capa_3"><g><path class="cls-10" d="M27.23,46.12s48,1,84,17c26.57,11.81,12.29,13.81,2.98,14.05-3.57,.09-7.13-.36-10.57-1.35-15.61-4.48-66.29-19.58-76.42-29.7Z"/><polyline class="cls-10" points="40.56 46.93 41.23 27.12 48.23 29.12 51.78 48.1"/><polyline class="cls-10" points="37.02 52.75 28.24 70.52 35.35 72.07 47.46 57.01"/><polyline class="cls-10" points="77.88 52.54 79.23 46.12 82.23 9.12 87.23 10.12 97.52 57.87"/><path class="cls-10" d="M91.23,30.12l5.91,2.22c1.19,.45,1.85,1.71,1.55,2.94l-.88,3.53c-.32,1.29-3.58,1.31-4.58,1.31"/><path class="cls-10" d="M94.73,44.62l6.31,2.33c1.27,.47,1.98,1.8,1.65,3.09l-.94,3.7c-.34,1.36-3.82,1.38-4.88,1.38"/><g><polyline class="cls-10" points="73.65 66.76 71.44 72.93 54.7 106.06 59.48 107.82 93.18 72.45"/><path class="cls-10" d="M73.33,92.84l6.2,1.19c1.25,.24,2.48-.49,2.86-1.71l1.09-3.47c.4-1.27-2.37-2.98-3.22-3.51"/><path class="cls-10" d="M83.88,82.3l6.59,1.3c1.33,.26,2.63-.5,3.02-1.78l1.13-3.65c.41-1.34-2.54-3.16-3.45-3.72"/></g></g><g><path class="cls-10" d="M513.55,412.55s39.3-27.57,77.8-35.95c28.41-6.18,18.08,3.87,10.71,9.57-2.83,2.19-5.97,3.92-9.32,5.16-15.24,5.62-65.04,23.4-79.19,21.22Z"/><polyline class="cls-10" points="524.79 405.32 513.61 388.95 520.44 386.42 534.53 399.63"/><polyline class="cls-10" points="525.37 412.11 528.8 431.63 535.45 428.67 536.31 409.37"/><polyline class="cls-10" points="558.21 387.78 555.49 381.8 536.04 350.19 540.66 348.04 577.19 380.47"/><path class="cls-10" d="M555.71,361.81l6.08-1.71c1.22-.34,2.51,.29,2.99,1.46l1.37,3.37c.5,1.23-2.11,3.17-2.92,3.76"/><path class="cls-10" d="M567.11,371.43l6.46-1.85c1.3-.37,2.66,.28,3.16,1.52l1.43,3.54c.52,1.3-2.26,3.37-3.12,4"/><g><polyline class="cls-10" points="563.2 401.75 565.07 408.04 571.15 444.65 576.05 443.24 582.31 394.79"/><path class="cls-10" d="M578.37,422.98l5.71-2.7c1.15-.54,1.7-1.86,1.29-3.06l-1.17-3.44c-.43-1.26-3.67-1.01-4.67-.92"/><path class="cls-10" d="M580.64,408.23l6.09-2.85c1.22-.57,1.82-1.96,1.38-3.22l-1.25-3.61c-.46-1.32-3.92-1.05-4.98-.96"/></g></g><g><path class="cls-10" d="M147.94,120.58s32.58,35.26,46.03,72.29c9.93,27.33-1.42,18.43-8.05,11.9-2.55-2.51-4.69-5.39-6.36-8.55-7.61-14.35-31.89-61.33-31.62-75.64Z"/><polyline class="cls-10" points="156.6 130.74 171.34 117.48 174.75 123.91 163.54 139.64"/><polyline class="cls-10" points="149.96 132.23 131.06 138.24 134.89 144.43 154.13 142.71"/><polyline class="cls-10" points="178.46 161.52 184.01 158.03 212.74 134.52 215.49 138.81 188.24 179.35"/><path class="cls-10" d="M203.86,155.57l2.51,5.8c.5,1.17,.05,2.52-1.05,3.16l-3.15,1.81c-1.16,.66-3.43-1.67-4.12-2.39"/><path class="cls-10" d="M189.76,176.97c.74,.77,3.16,3.25,4.38,2.56l3.32-1.89c1.16-.66,1.63-2.09,1.08-3.33l-2.7-6.16-6.08,8.82Z"/><polygon class="cls-10" points="174.73 186.35 125.88 186.62 123.82 181.95 159.3 171.03 165.28 168.33 174.73 186.35"/><path class="cls-10" d="M146.27,186.2l3.44,5.29c.69,1.06,2.07,1.44,3.21,.87l3.25-1.62c1.19-.6,.51-3.78,.29-4.75"/><path class="cls-10" d="M161.18,186.48l3.64,5.65c.73,1.14,2.18,1.54,3.38,.94l3.41-1.72c1.25-.63,.52-4.02,.29-5.06"/><line class="cls-10" x1="189.76" y1="111.64" x2="196.97" y2="128.56"/><line class="cls-10" x1="190.76" y1="103.64" x2="197.97" y2="120.56"/></g><g><path class="cls-10" d="M233.37,265.24s48.01-.58,84.51,14.23c26.94,10.93,12.74,13.4,3.44,13.95-3.57,.21-7.14-.13-10.61-1-15.75-3.96-66.9-17.39-77.35-27.17Z"/><polyline class="cls-10" points="246.73 265.62 246.74 245.79 253.8 247.56 257.98 266.42"/><polyline class="cls-10" points="243.38 271.55 235.19 289.6 242.35 290.91 253.95 275.47"/><polygon class="cls-10" points="304.01 274.67 292.15 227.29 287.12 226.45 285.34 263.53 284.21 269.99 304.01 274.67"/><path class="cls-10" d="M296.81,247.14l5.98,2.02c1.2,.41,1.91,1.65,1.64,2.89l-.77,3.55c-.28,1.3-3.53,1.43-4.53,1.46"/><path class="cls-10" d="M300.79,261.52l6.38,2.12c1.28,.43,2.04,1.73,1.75,3.04l-.82,3.73c-.3,1.37-3.77,1.5-4.83,1.54"/><g><polyline class="cls-10" points="280.45 284.34 278.45 290.59 262.8 324.25 267.64 325.85 300.16 289.39"/><path class="cls-10" d="M280.99,310.43l6.24,.99c1.25,.2,2.46-.57,2.8-1.8l.97-3.5c.36-1.28-2.47-2.91-3.34-3.4"/><path class="cls-10" d="M291.19,299.54l6.63,1.09c1.33,.22,2.61-.59,2.96-1.88l1.01-3.69c.37-1.35-2.64-3.08-3.57-3.61"/></g><line class="cls-10" x1="241.03" y1="312.73" x2="259.38" y2="313.99"/><line class="cls-10" x1="234.36" y1="308.21" x2="252.7" y2="309.47"/><line class="cls-10" x1="261.03" y1="236.73" x2="279.38" y2="237.99"/><line class="cls-10" x1="254.36" y1="232.21" x2="272.7" y2="233.47"/></g><g><path class="cls-10" d="M363.84,401.25s44.49-18.05,83.88-17.58c29.07,.35,16.75,7.83,8.29,11.73-3.25,1.5-6.69,2.49-10.24,2.94-16.11,2.06-68.63,8.21-81.93,2.91Z"/><polyline class="cls-10" points="376.41 396.73 369.19 378.26 376.41 377.33 387.18 393.37"/><polyline class="cls-10" points="375.46 403.47 374.42 423.27 381.56 421.88 386.73 403.26"/><polygon class="cls-10" points="433.06 384.27 404.73 344.47 399.74 345.53 411.61 380.7 412.91 387.13 433.06 384.27"/><path class="cls-10" d="M416.31,361.26l6.31-.3c1.27-.06,2.38,.84,2.58,2.09l.58,3.59c.21,1.32-2.77,2.62-3.69,3.01"/><path class="cls-10" d="M425.25,373.2l6.71-.35c1.35-.07,2.53,.87,2.74,2.19l.6,3.77c.22,1.38-2.96,2.77-3.94,3.19"/><g><polyline class="cls-10" points="414.64 401.86 415.06 408.41 412.77 445.46 417.86 445.18 434.83 399.38"/><path class="cls-10" d="M424.66,425.95l6.17-1.35c1.24-.27,2.08-1.43,1.95-2.7l-.37-3.62c-.14-1.33-3.36-1.81-4.34-1.95"/><path class="cls-10" d="M430.19,412.1l6.57-1.41c1.32-.28,2.21-1.5,2.07-2.83l-.4-3.8c-.15-1.39-3.58-1.9-4.64-2.06"/></g><line class="cls-10" x1="433.03" y1="362.73" x2="451.38" y2="363.99"/><line class="cls-10" x1="426.36" y1="358.21" x2="444.7" y2="359.47"/><line class="cls-10" x1="381.88" y1="441.54" x2="399.64" y2="436.76"/><line class="cls-10" x1="374.1" y1="439.44" x2="391.86" y2="434.66"/></g><g><line class="cls-10" x1="567.23" y1="370.26" x2="567.95" y2="369.57"/><line class="cls-17" x1="569.64" y1="367.95" x2="575.57" y2="362.3"/><polyline class="cls-10" points="576.42 361.49 577.14 360.8 577.7 361.63"/><line class="cls-21" x1="579" y1="363.56" x2="583.55" y2="370.32"/><polyline class="cls-10" points="584.2 371.29 584.76 372.12 585.07 371.16"/><line class="cls-5" x1="585.67" y1="369.32" x2="592.61" y2="348.13"/><polyline class="cls-10" points="592.91 347.21 593.23 346.26 593.23 347.26"/><line class="cls-13" x1="593.23" y1="349.19" x2="593.23" y2="363.65"/><polyline class="cls-10" points="593.23 364.62 593.23 365.62 594.16 365.25"/><line class="cls-3" x1="595.98" y1="364.53" x2="602.38" y2="361.99"/><polyline class="cls-10" points="603.3 361.63 604.23 361.26 604.23 362.26"/><line class="cls-15" x1="604.23" y1="364.03" x2="604.23" y2="370.23"/><line class="cls-10" x1="604.23" y1="371.12" x2="604.23" y2="372.12"/></g><g><line class="cls-10" x1="555.71" y1="419.31" x2="554.92" y2="419.92"/><line class="cls-16" x1="553.51" y1="421.01" x2="548.59" y2="424.8"/><polyline class="cls-10" points="547.89 425.34 547.1 425.95 548.04 426.28"/><line class="cls-2" x1="550.28" y1="427.04" x2="553.64" y2="428.18"/><polyline class="cls-10" points="554.76 428.57 555.71 428.89 554.9 429.48"/><line class="cls-6" x1="553.39" y1="430.59" x2="545.04" y2="436.71"/><polyline class="cls-10" points="544.29 437.27 543.48 437.86 544.41 437.49"/><line class="cls-8" x1="546.24" y1="436.77" x2="559.99" y2="431.31"/><polyline class="cls-10" points="560.91 430.95 561.84 430.58 561.41 431.48"/><line class="cls-14" x1="560.54" y1="433.31" x2="557.48" y2="439.73"/><polyline class="cls-10" points="557.04 440.64 556.61 441.54 557.52 441.13"/><line class="cls-11" x1="558.66" y1="440.61" x2="560.36" y2="439.83"/><polyline class="cls-10" points="560.93 439.57 561.84 439.15 561.99 440.14"/><line class="cls-20" x1="562.31" y1="442.15" x2="565.91" y2="465.19"/><polyline class="cls-10" points="566.06 466.19 566.22 467.18 566.41 466.2"/><line class="cls-18" x1="566.84" y1="464.01" x2="569.2" y2="451.98"/><polyline class="cls-10" points="569.41 450.89 569.6 449.91 570.52 450.31"/><line class="cls-12" x1="572.78" y1="451.31" x2="576.18" y2="452.81"/><polyline class="cls-10" points="577.31 453.31 578.22 453.72 578.25 452.72"/><line class="cls-19" x1="578.28" y1="451.32" x2="578.33" y2="449.21"/><line class="cls-10" x1="578.34" y1="448.51" x2="578.37" y2="447.51"/></g><g><path class="cls-10" d="M716.54,490.47s-3.26,3.45-8.08-1.17"/><path class="cls-10" d="M716.4,494.59s-3.26,3.45-8.08-1.17"/><g><g><path class="cls-10" d="M667.02,451.86c-12.71-4.73-23.83-9.71-28.02-13.87,0,0,13.54,.22,31.64,2.81l-2.38,2.09-1.24,8.97Z"/><polyline class="cls-10" points="652.34 438.75 652.92 418.93 659.93 420.9 663.56 439.87"/><polyline class="cls-10" points="648.82 444.58 640.12 462.39 647.24 463.91 659.28 448.8"/></g><g><path class="cls-10" d="M674.69,451.81c13.72,11.72,29.23,23.43,36.27,28.65,2.87,2.13,6.04,3.81,9.42,4.98,8.8,3.05,22.87,6.19,2.15-14.2-11.45-11.26-25.64-20.89-38.43-28.35l-5.67,.67v3.87l-3.74,4.39Z"/><polyline class="cls-10" points="695.02 449.62 698.54 444.08 714.35 410.49 718.68 413.18 711.53 461.51"/><path class="cls-10" d="M715.39,433.31l4.76,4.15c.96,.84,1.13,2.26,.41,3.3l-2.06,2.99c-.76,1.1-3.81-.03-4.75-.38"/><path class="cls-10" d="M713.58,448.12l5.09,4.4c1.02,.88,1.22,2.38,.46,3.47l-2.18,3.14c-.8,1.15-4.06-.05-5.05-.43"/><g><polyline class="cls-10" points="686.06 461.44 681.83 466.45 654.51 491.58 658.37 494.91 702.35 473.63"/><path class="cls-10" d="M676.6,485.75l5.39,3.3c1.08,.66,2.49,.41,3.27-.59l2.24-2.87c.82-1.05-1.17-3.63-1.78-4.41"/><path class="cls-10" d="M690.18,479.59l5.72,3.54c1.15,.71,2.63,.45,3.45-.6l2.34-3.02c.86-1.11-1.26-3.85-1.92-4.69"/></g></g><path class="cls-10" d="M646.73,412.62s2.18-4.21,8.09-1.11"/><path class="cls-10" d="M645.73,408.62s2.18-4.21,8.09-1.11"/><polyline class="cls-10" points="670.63 433.31 672.73 424.62 676.6 434.5 684.11 431.87 684.11 436 690.18 434.5 695.02 424.62 695.02 436.98"/></g></g><path class="cls-10" d="M760.69,530.81c13.72,11.72,29.23,23.43,36.27,28.65,2.87,2.13,6.04,3.81,9.42,4.98,8.8,3.05,22.87,6.19,2.15-14.2-11.45-11.26-25.64-20.89-38.43-28.35l-2.37,4.73-3,1-4.04,3.2Z"/><polygon class="cls-10" points="807.17 533.9 799.58 485.64 794.65 484.36 789.57 521.14 787.87 527.47 807.17 533.9"/><path class="cls-10" d="M802.45,505.84l5.78,2.55c1.16,.51,1.76,1.81,1.38,3.03l-1.08,3.47c-.4,1.27-3.65,1.11-4.64,1.05"/><line class="cls-4" x1="745.27" y1="526.22" x2="771.23" y2="548.12"/><line class="cls-4" x1="741.27" y1="526.22" x2="767.23" y2="548.12"/><line class="cls-4" x1="802.27" y1="539.22" x2="828.23" y2="561.12"/><line class="cls-4" x1="809.27" y1="542.22" x2="835.23" y2="564.12"/><g><path class="cls-10" d="M837.94,624.94c15.91,8.52,33.57,16.63,41.56,20.23,3.26,1.47,6.72,2.43,10.27,2.85,9.25,1.09,23.66,1.15-.94-14.33-13.59-8.55-29.51-14.93-43.6-19.47l-7.28,10.73Z"/><path class="cls-10" d="M838.73,633.62s2-3,5,2c0,0,3.85-3,5.42,0,0,0,4.58,0,5.58,6"/><path class="cls-10" d="M868,650.91s.31-3.59,5.34-.66c0,0,1.93-4.48,4.75-2.61,0,0,4.01-2.21,7.78,2.57"/><path class="cls-10" d="M893.73,653.62s-19,6-32-2"/><path class="cls-10" d="M883.55,659.09s-19.7,2.99-31.31-6.93"/><path class="cls-10" d="M891.73,643.62s2-3,4-2"/><circle class="cls-10" cx="849.73" cy="625.62" r="1"/><circle class="cls-10" cx="853.73" cy="627.62" r="1"/><circle class="cls-10" cx="857.73" cy="629.62" r="1"/><circle class="cls-10" cx="861.73" cy="631.62" r="1"/></g><line class="cls-10" x1="3.34" y1="46.12" x2="21.67" y2="52.75"/><line class="cls-10" x1=".34" y1="40.12" x2="18.67" y2="46.75"/></g><g id="Capa_6"><polyline class="cls-7" points="123.82 43.43 161.18 43.43 172.91 9.12"/><polyline class="cls-7" points="303.73 228.62 341.02 228.62 352.73 173.62"/><polyline class="cls-7" points="597.73 336.62 639.59 336.62 652.73 237.62"/><polyline class="cls-7" points="612.73 574.62 654.59 574.62 667.73 503.62"/><polyline class="cls-7" points="779.73 682.62 821.59 682.62 834.73 644.62"/><g><path class="cls-22" d="M190.38,7.82h-3.93v3.65h4.38v1.09h-5.68V2.45h5.46v1.09h-4.15v3.19h3.93v1.08Z"/><path class="cls-22" d="M192.48,1.91h1.32V12.56h-1.32V1.91Z"/><path class="cls-22" d="M199.2,7.67c0-.93-.03-1.68-.06-2.37h1.18l.06,1.25h.03c.54-.89,1.4-1.41,2.58-1.41,1.75,0,3.08,1.48,3.08,3.69,0,2.61-1.59,3.9-3.3,3.9-.96,0-1.8-.42-2.24-1.14h-.03v3.94h-1.31V7.67Zm1.31,1.93c0,.2,.03,.38,.06,.54,.24,.92,1.03,1.54,1.98,1.54,1.4,0,2.2-1.14,2.2-2.8,0-1.46-.76-2.7-2.16-2.7-.9,0-1.74,.64-2,1.63-.04,.17-.09,.36-.09,.54v1.24Z"/><path class="cls-22" d="M209.2,3.26c.02,.45-.31,.81-.84,.81-.47,0-.79-.36-.79-.81s.34-.82,.82-.82,.81,.36,.81,.82Zm-1.47,9.3V5.3h1.32v7.26h-1.32Z"/><path class="cls-22" d="M211.24,1.91h1.32V12.56h-1.32V1.91Z"/><path class="cls-22" d="M221.35,8.87c0,2.69-1.86,3.85-3.61,3.85-1.96,0-3.48-1.44-3.48-3.73,0-2.43,1.59-3.85,3.6-3.85s3.49,1.52,3.49,3.73Zm-5.76,.08c0,1.59,.92,2.79,2.21,2.79s2.21-1.18,2.21-2.82c0-1.23-.62-2.79-2.18-2.79s-2.23,1.44-2.23,2.82Z"/><path class="cls-22" d="M224.61,3.21v2.08h1.89v1h-1.89v3.92c0,.9,.25,1.41,.99,1.41,.35,0,.6-.04,.77-.09l.06,.99c-.26,.1-.66,.18-1.17,.18-.62,0-1.11-.19-1.43-.55-.38-.39-.51-1.04-.51-1.89v-3.96h-1.12v-1h1.12v-1.74l1.29-.35Z"/><path class="cls-22" d="M234.46,8.87c0,2.69-1.86,3.85-3.61,3.85-1.96,0-3.48-1.44-3.48-3.73,0-2.43,1.59-3.85,3.6-3.85s3.49,1.52,3.49,3.73Zm-5.76,.08c0,1.59,.92,2.79,2.21,2.79s2.21-1.18,2.21-2.82c0-1.23-.62-2.79-2.18-2.79s-2.23,1.44-2.23,2.82Z"/><path class="cls-22" d="M244.48,12.29c-.34,.18-1.11,.42-2.08,.42-2.19,0-3.62-1.48-3.62-3.7s1.53-3.85,3.9-3.85c.78,0,1.47,.19,1.83,.38l-.3,1.02c-.31-.18-.81-.35-1.53-.35-1.67,0-2.56,1.23-2.56,2.75,0,1.68,1.08,2.71,2.52,2.71,.75,0,1.25-.19,1.62-.36l.22,.99Z"/><path class="cls-22" d="M246.03,7.56c0-.85-.01-1.59-.06-2.27h1.15l.04,1.42h.06c.33-.97,1.12-1.59,2.01-1.59,.15,0,.25,.02,.38,.04v1.25c-.13-.03-.27-.04-.45-.04-.93,0-1.59,.71-1.77,1.69-.03,.18-.06,.39-.06,.62v3.87h-1.31V7.56Z"/><path class="cls-22" d="M251.52,9.17c.03,1.78,1.17,2.52,2.49,2.52,.94,0,1.52-.17,2.01-.38l.23,.95c-.46,.21-1.26,.45-2.42,.45-2.23,0-3.57-1.47-3.57-3.66s1.29-3.92,3.4-3.92c2.37,0,3,2.08,3,3.42,0,.27-.03,.48-.04,.62h-5.1Zm3.87-.95c.02-.84-.34-2.15-1.83-2.15-1.33,0-1.92,1.23-2.02,2.15h3.85Z"/><path class="cls-22" d="M259.03,9.17c.03,1.78,1.17,2.52,2.49,2.52,.94,0,1.52-.17,2.01-.38l.23,.95c-.46,.21-1.26,.45-2.42,.45-2.23,0-3.57-1.47-3.57-3.66s1.29-3.92,3.4-3.92c2.37,0,3,2.08,3,3.42,0,.27-.03,.48-.04,.62h-5.1Zm3.87-.95c.02-.84-.34-2.15-1.83-2.15-1.33,0-1.92,1.23-2.02,2.15h3.85Z"/><path class="cls-22" d="M268.99,1.91h1.32V6.44h.03c.21-.38,.54-.71,.94-.93,.39-.23,.85-.38,1.35-.38,.98,0,2.54,.6,2.54,3.1v4.32h-1.32v-4.17c0-1.17-.44-2.16-1.68-2.16-.85,0-1.53,.6-1.77,1.32-.08,.18-.09,.38-.09,.63v4.38h-1.32V1.91Z"/><path class="cls-22" d="M281.34,12.56l-.1-.92h-.04c-.4,.57-1.19,1.08-2.22,1.08-1.47,0-2.22-1.04-2.22-2.08,0-1.75,1.56-2.71,4.36-2.7v-.15c0-.6-.17-1.68-1.65-1.68-.67,0-1.38,.21-1.89,.54l-.3-.87c.6-.39,1.47-.65,2.39-.65,2.22,0,2.76,1.52,2.76,2.97v2.71c0,.63,.03,1.24,.12,1.74h-1.2Zm-.19-3.71c-1.44-.03-3.08,.23-3.08,1.64,0,.85,.57,1.26,1.25,1.26,.94,0,1.54-.6,1.75-1.21,.04-.13,.08-.29,.08-.42v-1.26Z"/><path class="cls-22" d="M284.49,12.56c.03-.5,.06-1.23,.06-1.88V1.91h1.31V6.47h.03c.47-.81,1.31-1.33,2.48-1.33,1.8,0,3.07,1.5,3.06,3.71,0,2.59-1.64,3.88-3.25,3.88-1.05,0-1.89-.4-2.43-1.36h-.04l-.06,1.2h-1.14Zm1.36-2.91c0,.16,.03,.33,.06,.48,.25,.91,1.02,1.54,1.98,1.54,1.38,0,2.2-1.12,2.2-2.79,0-1.46-.75-2.7-2.16-2.7-.9,0-1.74,.61-2.01,1.62-.03,.15-.08,.33-.08,.54v1.31Z"/><path class="cls-22" d="M293.82,9.17c.03,1.78,1.17,2.52,2.49,2.52,.94,0,1.52-.17,2.01-.38l.23,.95c-.46,.21-1.26,.45-2.42,.45-2.23,0-3.57-1.47-3.57-3.66s1.29-3.92,3.4-3.92c2.37,0,3,2.08,3,3.42,0,.27-.03,.48-.04,.62h-5.1Zm3.87-.95c.02-.84-.34-2.15-1.83-2.15-1.33,0-1.92,1.23-2.02,2.15h3.85Z"/><path class="cls-22" d="M300.6,7.56c0-.85-.01-1.59-.06-2.27h1.15l.04,1.42h.06c.33-.97,1.12-1.59,2.01-1.59,.15,0,.26,.02,.38,.04v1.25c-.13-.03-.27-.04-.45-.04-.93,0-1.59,.71-1.77,1.69-.03,.18-.06,.39-.06,.62v3.87h-1.31V7.56Z"/><path class="cls-22" d="M308.68,1.91h1.32V12.56h-1.32V1.91Z"/><path class="cls-22" d="M312.22,1.91h1.32V12.56h-1.32V1.91Z"/><path class="cls-22" d="M316.5,9.17c.03,1.78,1.17,2.52,2.49,2.52,.94,0,1.52-.17,2.01-.38l.23,.95c-.46,.21-1.26,.45-2.42,.45-2.23,0-3.57-1.47-3.57-3.66s1.29-3.92,3.4-3.92c2.37,0,3,2.08,3,3.42,0,.27-.03,.48-.04,.62h-5.1Zm3.87-.95c.02-.84-.34-2.15-1.83-2.15-1.33,0-1.92,1.23-2.02,2.15h3.85Z"/><path class="cls-22" d="M329.53,5.3c-.03,.52-.06,1.11-.06,2v4.21c0,1.66-.33,2.68-1.03,3.31-.71,.66-1.73,.87-2.64,.87s-1.83-.21-2.41-.6l.33-1c.48,.3,1.23,.57,2.13,.57,1.35,0,2.34-.71,2.34-2.54v-.81h-.03c-.4,.68-1.19,1.22-2.31,1.22-1.8,0-3.09-1.53-3.09-3.54,0-2.46,1.6-3.85,3.27-3.85,1.26,0,1.95,.66,2.27,1.26h.03l.06-1.1h1.15Zm-1.36,2.86c0-.22-.02-.42-.08-.6-.24-.77-.88-1.4-1.84-1.4-1.26,0-2.16,1.06-2.16,2.74,0,1.43,.72,2.61,2.15,2.61,.81,0,1.54-.51,1.83-1.35,.07-.23,.1-.48,.1-.71v-1.31Z"/><path class="cls-22" d="M335.68,12.56l-.1-.92h-.04c-.41,.57-1.19,1.08-2.22,1.08-1.47,0-2.22-1.04-2.22-2.08,0-1.75,1.56-2.71,4.36-2.7v-.15c0-.6-.17-1.68-1.65-1.68-.67,0-1.38,.21-1.89,.54l-.3-.87c.6-.39,1.47-.65,2.39-.65,2.22,0,2.76,1.52,2.76,2.97v2.71c0,.63,.03,1.24,.12,1.74h-1.2Zm-.19-3.71c-1.44-.03-3.08,.23-3.08,1.64,0,.85,.57,1.26,1.25,1.26,.94,0,1.54-.6,1.75-1.21,.04-.13,.08-.29,.08-.42v-1.26Z"/><path class="cls-22" d="M345.16,1.91V10.68c0,.65,.02,1.38,.06,1.88h-1.19l-.06-1.26h-.03c-.41,.81-1.29,1.42-2.48,1.42-1.75,0-3.1-1.48-3.1-3.69-.01-2.42,1.48-3.9,3.25-3.9,1.11,0,1.86,.52,2.19,1.11h.03V1.91h1.32Zm-1.32,6.34c0-.17-.02-.39-.06-.56-.2-.84-.92-1.53-1.91-1.53-1.36,0-2.17,1.2-2.17,2.8,0,1.47,.72,2.69,2.15,2.69,.88,0,1.69-.58,1.94-1.58,.04-.18,.06-.36,.06-.57v-1.26Z"/><path class="cls-22" d="M353.92,8.87c0,2.69-1.86,3.85-3.61,3.85-1.96,0-3.48-1.44-3.48-3.73,0-2.43,1.59-3.85,3.6-3.85s3.49,1.52,3.49,3.73Zm-5.76,.08c0,1.59,.92,2.79,2.21,2.79s2.21-1.18,2.21-2.82c0-1.23-.62-2.79-2.18-2.79s-2.23,1.44-2.23,2.82Z"/><path class="cls-22" d="M362.78,12.56l-.1-.92h-.04c-.41,.57-1.19,1.08-2.22,1.08-1.47,0-2.22-1.04-2.22-2.08,0-1.75,1.56-2.71,4.36-2.7v-.15c0-.6-.17-1.68-1.65-1.68-.67,0-1.38,.21-1.89,.54l-.3-.87c.6-.39,1.47-.65,2.39-.65,2.22,0,2.76,1.52,2.76,2.97v2.71c0,.63,.03,1.24,.12,1.74h-1.2Zm-.19-3.71c-1.44-.03-3.08,.23-3.08,1.64,0,.85,.57,1.26,1.25,1.26,.94,0,1.54-.6,1.75-1.21,.04-.13,.08-.29,.08-.42v-1.26Z"/><path class="cls-22" d="M192.21,30.23c-.48,.24-1.44,.48-2.67,.48-2.85,0-4.99-1.8-4.99-5.11s2.15-5.31,5.28-5.31c1.26,0,2.05,.27,2.4,.45l-.31,1.06c-.5-.24-1.2-.42-2.04-.42-2.37,0-3.94,1.52-3.94,4.17,0,2.48,1.42,4.06,3.88,4.06,.79,0,1.6-.17,2.13-.42l.27,1.03Z"/><path class="cls-22" d="M199.69,28.58c0,.75,.01,1.41,.06,1.98h-1.17l-.07-1.19h-.03c-.34,.58-1.11,1.35-2.4,1.35-1.14,0-2.5-.63-2.5-3.18v-4.25h1.32v4.02c0,1.38,.42,2.31,1.62,2.31,.89,0,1.5-.61,1.74-1.2,.07-.19,.12-.44,.12-.67v-4.46h1.32v5.28Z"/><path class="cls-22" d="M201.88,25.56c0-.85-.01-1.59-.06-2.27h1.15l.04,1.42h.06c.33-.97,1.12-1.59,2.01-1.59,.15,0,.25,.02,.38,.04v1.25c-.13-.03-.27-.04-.45-.04-.93,0-1.59,.71-1.77,1.69-.03,.18-.06,.39-.06,.62v3.87h-1.31v-4.99Z"/><path class="cls-22" d="M208.32,21.26c.02,.45-.31,.81-.84,.81-.47,0-.79-.36-.79-.81s.34-.82,.82-.82,.81,.36,.81,.82Zm-1.47,9.3v-7.26h1.32v7.26h-1.32Z"/><path class="cls-22" d="M215.53,30.29c-.34,.18-1.11,.42-2.08,.42-2.19,0-3.62-1.48-3.62-3.7s1.53-3.85,3.9-3.85c.78,0,1.47,.19,1.83,.38l-.3,1.02c-.31-.18-.81-.35-1.53-.35-1.67,0-2.56,1.23-2.56,2.75,0,1.68,1.08,2.71,2.52,2.71,.75,0,1.25-.19,1.62-.36l.22,.99Z"/><path class="cls-22" d="M223.56,26.87c0,2.69-1.86,3.85-3.61,3.85-1.96,0-3.48-1.44-3.48-3.73,0-2.43,1.59-3.85,3.6-3.85s3.49,1.52,3.49,3.73Zm-5.76,.08c0,1.59,.92,2.79,2.21,2.79s2.21-1.18,2.21-2.82c0-1.23-.62-2.79-2.18-2.79s-2.23,1.44-2.23,2.82Zm4.19-6.78l-1.83,2.15h-.94l1.32-2.15h1.46Z"/><path class="cls-22" d="M224.01,32.4c.33-.88,.73-2.49,.9-3.58l1.47-.15c-.34,1.28-1,2.94-1.42,3.65l-.94,.09Z"/><path class="cls-22" d="M231.88,27.17c.03,1.78,1.17,2.52,2.49,2.52,.94,0,1.52-.17,2.01-.38l.23,.95c-.46,.21-1.26,.45-2.42,.45-2.23,0-3.57-1.47-3.57-3.66s1.29-3.92,3.4-3.92c2.37,0,3,2.08,3,3.42,0,.27-.03,.48-.04,.62h-5.1Zm3.87-.95c.02-.84-.34-2.15-1.83-2.15-1.33,0-1.92,1.23-2.02,2.15h3.85Z"/><path class="cls-22" d="M238.48,29.21c.39,.26,1.08,.52,1.74,.52,.96,0,1.41-.48,1.41-1.08,0-.63-.38-.98-1.35-1.33-1.3-.47-1.92-1.19-1.92-2.06,0-1.17,.94-2.13,2.5-2.13,.73,0,1.38,.21,1.79,.45l-.33,.96c-.29-.18-.81-.42-1.48-.42-.78,0-1.22,.45-1.22,.99,0,.6,.44,.87,1.38,1.23,1.26,.48,1.9,1.11,1.9,2.19,0,1.27-.99,2.17-2.71,2.17-.79,0-1.53-.19-2.04-.5l.33-1Z"/><path class="cls-22" d="M251.8,30.56l-.1-.92h-.04c-.41,.57-1.19,1.08-2.22,1.08-1.47,0-2.22-1.04-2.22-2.08,0-1.75,1.56-2.71,4.36-2.7v-.15c0-.6-.17-1.68-1.65-1.68-.67,0-1.38,.21-1.89,.54l-.3-.87c.6-.39,1.47-.65,2.39-.65,2.22,0,2.76,1.52,2.76,2.97v2.71c0,.63,.03,1.24,.12,1.74h-1.2Zm-.19-3.71c-1.44-.03-3.08,.23-3.08,1.64,0,.85,.57,1.26,1.25,1.26,.94,0,1.54-.6,1.75-1.21,.04-.13,.08-.29,.08-.42v-1.26Z"/><path class="cls-22" d="M261.09,28.58c0,.75,.01,1.41,.06,1.98h-1.17l-.07-1.19h-.03c-.34,.58-1.11,1.35-2.4,1.35-1.14,0-2.5-.63-2.5-3.18v-4.25h1.32v4.02c0,1.38,.42,2.31,1.62,2.31,.89,0,1.5-.61,1.74-1.2,.07-.19,.12-.44,.12-.67v-4.46h1.32v5.28Z"/><path class="cls-22" d="M264.87,21.21v2.08h1.89v1h-1.89v3.92c0,.9,.25,1.41,.99,1.41,.35,0,.6-.04,.77-.09l.06,.99c-.26,.1-.66,.18-1.17,.18-.62,0-1.11-.19-1.43-.55-.38-.39-.51-1.04-.51-1.89v-3.96h-1.12v-1h1.12v-1.74l1.29-.35Z"/><path class="cls-22" d="M274.72,26.87c0,2.69-1.86,3.85-3.61,3.85-1.96,0-3.48-1.44-3.48-3.73,0-2.43,1.59-3.85,3.6-3.85s3.49,1.52,3.49,3.73Zm-5.76,.08c0,1.59,.92,2.79,2.21,2.79s2.21-1.18,2.21-2.82c0-1.23-.62-2.79-2.18-2.79s-2.23,1.44-2.23,2.82Z"/><path class="cls-22" d="M276.39,25.56c0-.85-.01-1.59-.06-2.27h1.15l.04,1.42h.06c.33-.97,1.12-1.59,2.01-1.59,.15,0,.26,.02,.38,.04v1.25c-.13-.03-.27-.04-.45-.04-.93,0-1.59,.71-1.77,1.69-.03,.18-.06,.39-.06,.62v3.87h-1.31v-4.99Z"/><path class="cls-22" d="M282.82,21.26c.02,.45-.31,.81-.84,.81-.47,0-.79-.36-.79-.81s.34-.82,.82-.82,.81,.36,.81,.82Zm-1.47,9.3v-7.26h1.32v7.26h-1.32Z"/><path class="cls-22" d="M284.04,29.79l3.28-4.27c.31-.39,.62-.74,.95-1.12v-.03h-3.93v-1.06h5.54l-.02,.83-3.24,4.21c-.3,.4-.6,.76-.93,1.14v.03h4.24v1.05h-5.89v-.77Z"/><path class="cls-22" d="M295.3,30.56l-.1-.92h-.04c-.4,.57-1.19,1.08-2.22,1.08-1.47,0-2.22-1.04-2.22-2.08,0-1.75,1.56-2.71,4.36-2.7v-.15c0-.6-.17-1.68-1.65-1.68-.67,0-1.38,.21-1.89,.54l-.3-.87c.6-.39,1.47-.65,2.39-.65,2.22,0,2.76,1.52,2.76,2.97v2.71c0,.63,.03,1.24,.12,1.74h-1.2Zm-.19-3.71c-1.44-.03-3.08,.23-3.08,1.64,0,.85,.57,1.26,1.25,1.26,.94,0,1.54-.6,1.75-1.21,.04-.13,.08-.29,.08-.42v-1.26Z"/><path class="cls-22" d="M304.78,19.91v8.77c0,.65,.02,1.38,.06,1.88h-1.19l-.06-1.26h-.03c-.41,.81-1.29,1.42-2.48,1.42-1.75,0-3.1-1.48-3.1-3.69-.01-2.42,1.48-3.9,3.25-3.9,1.11,0,1.86,.52,2.19,1.11h.03v-4.33h1.32Zm-1.32,6.34c0-.17-.02-.39-.06-.56-.2-.84-.92-1.53-1.9-1.53-1.37,0-2.18,1.2-2.18,2.8,0,1.47,.72,2.69,2.15,2.69,.88,0,1.69-.58,1.94-1.58,.04-.18,.06-.36,.06-.57v-1.26Z"/><path class="cls-22" d="M313.54,26.87c0,2.69-1.86,3.85-3.61,3.85-1.96,0-3.48-1.44-3.48-3.73,0-2.43,1.59-3.85,3.6-3.85s3.49,1.52,3.49,3.73Zm-5.76,.08c0,1.59,.92,2.79,2.21,2.79s2.21-1.18,2.21-2.82c0-1.23-.62-2.79-2.18-2.79s-2.23,1.44-2.23,2.82Z"/><path class="cls-22" d="M322.41,30.56l-.1-.92h-.04c-.4,.57-1.19,1.08-2.22,1.08-1.47,0-2.22-1.04-2.22-2.08,0-1.75,1.56-2.71,4.36-2.7v-.15c0-.6-.17-1.68-1.65-1.68-.67,0-1.38,.21-1.89,.54l-.3-.87c.6-.39,1.47-.65,2.39-.65,2.22,0,2.76,1.52,2.76,2.97v2.71c0,.63,.03,1.24,.12,1.74h-1.2Zm-.19-3.71c-1.44-.03-3.08,.23-3.08,1.64,0,.85,.57,1.26,1.25,1.26,.94,0,1.54-.6,1.75-1.21,.04-.13,.08-.29,.08-.42v-1.26Z"/><path class="cls-22" d="M335.07,19.91v8.77c0,.65,.02,1.38,.06,1.88h-1.19l-.06-1.26h-.03c-.41,.81-1.29,1.42-2.48,1.42-1.75,0-3.1-1.48-3.1-3.69-.01-2.42,1.48-3.9,3.25-3.9,1.11,0,1.86,.52,2.19,1.11h.03v-4.33h1.32Zm-1.32,6.34c0-.17-.02-.39-.06-.56-.2-.84-.92-1.53-1.9-1.53-1.37,0-2.18,1.2-2.18,2.8,0,1.47,.72,2.69,2.15,2.69,.88,0,1.69-.58,1.94-1.58,.04-.18,.06-.36,.06-.57v-1.26Z"/><path class="cls-22" d="M337.99,27.17c.03,1.78,1.17,2.52,2.49,2.52,.94,0,1.52-.17,2.01-.38l.23,.95c-.46,.21-1.26,.45-2.42,.45-2.23,0-3.57-1.47-3.57-3.66s1.29-3.92,3.4-3.92c2.37,0,3,2.08,3,3.42,0,.27-.03,.48-.04,.62h-5.1Zm3.87-.95c.02-.84-.34-2.15-1.83-2.15-1.33,0-1.92,1.23-2.02,2.15h3.85Z"/><path class="cls-22" d="M344.59,29.21c.39,.26,1.08,.52,1.74,.52,.96,0,1.41-.48,1.41-1.08,0-.63-.38-.98-1.35-1.33-1.3-.47-1.92-1.19-1.92-2.06,0-1.17,.94-2.13,2.5-2.13,.73,0,1.38,.21,1.79,.45l-.33,.96c-.29-.18-.81-.42-1.48-.42-.78,0-1.22,.45-1.22,.99,0,.6,.44,.87,1.38,1.23,1.26,.48,1.9,1.11,1.9,2.19,0,1.27-.99,2.17-2.71,2.17-.79,0-1.53-.19-2.04-.5l.33-1Z"/><path class="cls-22" d="M355.89,30.29c-.34,.18-1.11,.42-2.08,.42-2.19,0-3.62-1.48-3.62-3.7s1.53-3.85,3.9-3.85c.78,0,1.47,.19,1.83,.38l-.3,1.02c-.31-.18-.81-.35-1.53-.35-1.67,0-2.56,1.23-2.56,2.75,0,1.68,1.08,2.71,2.52,2.71,.75,0,1.25-.19,1.62-.36l.22,.99Z"/><path class="cls-22" d="M358.08,27.17c.03,1.78,1.17,2.52,2.49,2.52,.94,0,1.52-.17,2.01-.38l.23,.95c-.46,.21-1.26,.45-2.42,.45-2.23,0-3.57-1.47-3.57-3.66s1.29-3.92,3.4-3.92c2.37,0,3,2.08,3,3.42,0,.27-.03,.48-.04,.62h-5.1Zm3.87-.95c.02-.84-.34-2.15-1.83-2.15-1.33,0-1.92,1.23-2.02,2.15h3.85Z"/><path class="cls-22" d="M364.86,25.26c0-.75-.01-1.36-.06-1.96h1.17l.07,1.2h.03c.36-.69,1.2-1.37,2.4-1.37,1,0,2.56,.6,2.56,3.09v4.33h-1.32v-4.19c0-1.17-.44-2.14-1.68-2.14-.87,0-1.54,.61-1.77,1.35-.06,.17-.09,.39-.09,.62v4.36h-1.32v-5.29Z"/><path class="cls-22" d="M376.24,26.01v.98h-3.7v-.98h3.7Z"/><path class="cls-22" d="M191.37,37.91v8.77c0,.65,.02,1.38,.06,1.88h-1.19l-.06-1.26h-.03c-.41,.81-1.29,1.42-2.48,1.42-1.75,0-3.1-1.48-3.1-3.69-.01-2.42,1.48-3.9,3.25-3.9,1.11,0,1.86,.52,2.19,1.11h.03v-4.33h1.32Zm-1.32,6.34c0-.17-.02-.39-.06-.56-.2-.84-.92-1.53-1.9-1.53-1.37,0-2.18,1.2-2.18,2.8,0,1.47,.72,2.69,2.15,2.69,.88,0,1.69-.58,1.94-1.58,.04-.18,.06-.36,.06-.57v-1.26Z"/><path class="cls-22" d="M194.29,45.17c.03,1.78,1.17,2.52,2.49,2.52,.94,0,1.52-.17,2.01-.38l.23,.95c-.46,.21-1.26,.45-2.42,.45-2.23,0-3.57-1.47-3.57-3.66s1.29-3.92,3.4-3.92c2.37,0,3,2.08,3,3.42,0,.27-.03,.48-.04,.62h-5.1Zm3.87-.95c.02-.84-.34-2.15-1.83-2.15-1.33,0-1.92,1.23-2.02,2.15h3.85Z"/><path class="cls-22" d="M201.07,43.56c0-.85-.01-1.59-.06-2.27h1.15l.04,1.42h.06c.33-.97,1.12-1.59,2.01-1.59,.15,0,.25,.02,.38,.04v1.25c-.13-.03-.27-.04-.45-.04-.93,0-1.59,.71-1.77,1.69-.03,.18-.06,.39-.06,.62v3.87h-1.31v-4.99Z"/><path class="cls-22" d="M204.87,47.78c0-.56,.38-.95,.9-.95s.88,.39,.88,.95-.35,.94-.9,.94c-.52,0-.89-.4-.89-.94Z"/></g><text class="cls-23" transform="translate(364 167.27)"><tspan class="cls-26" x="0" y="0">S</tspan><tspan x="7.48" y="0">e c</tspan><tspan class="cls-31" x="24.9" y="0">r</tspan><tspan x="29.65" y="0">ee que e</tspan><tspan class="cls-28" x="82.78" y="0">n</tspan><tspan x="91.05" y="0">t</tspan><tspan class="cls-33" x="96.01" y="0">r</tspan><tspan x="100.84" y="0">a a una nube y </tspan><tspan class="cls-24" x="0" y="18">c</tspan><tspan x="6.63" y="18">omienza a pe</tspan><tspan class="cls-31" x="90.01" y="18">r</tspan><tspan x="94.77" y="18">der el rumbo</tspan></text><text class="cls-23" transform="translate(665 236.56)"><tspan x="0" y="0">El pilo</tspan><tspan class="cls-24" x="37.92" y="0">t</tspan><tspan x="42.79" y="0">o </tspan><tspan class="cls-27" x="54.21" y="0">I</tspan><tspan class="cls-28" x="57.94" y="0">n</tspan><tspan class="cls-24" x="66.21" y="0">t</tspan><tspan x="71.08" y="0">e</tspan><tspan class="cls-28" x="78.6" y="0">n</tspan><tspan x="86.86" y="0">ta ob</tspan><tspan class="cls-24" x="119.01" y="0">t</tspan><tspan x="123.88" y="0">ener altu</tspan><tspan class="cls-32" x="179.32" y="0">r</tspan><tspan x="184.15" y="0">a pe</tspan><tspan class="cls-31" x="210.61" y="0">r</tspan><tspan x="215.36" y="0">o el a </tspan><tspan x="0" y="18">la de</tspan><tspan class="cls-31" x="29.92" y="18">r</tspan><tspan x="34.68" y="18">echa choca </tspan><tspan class="cls-24" x="108.06" y="18">c</tspan><tspan x="114.69" y="18">on una pa</tspan><tspan class="cls-1" x="177.19" y="18">r</tspan><tspan class="cls-25" x="182.46" y="18">t</tspan><tspan x="187.33" y="18">e de la </tspan><tspan x="0" y="36">mo</tspan><tspan class="cls-28" x="20.74" y="36">n</tspan><tspan x="29.01" y="36">taña.</tspan></text><text class="cls-23" transform="translate(425 571.56)"><tspan x="0" y="0">La </tspan><tspan class="cls-24" x="17.49" y="0">c</tspan><tspan x="24.12" y="0">ola y el fuselaje se </tspan><tspan x="0" y="18">sepa</tspan><tspan class="cls-33" x="29.22" y="18">r</tspan><tspan x="34.05" y="18">an, algunos pasaje</tspan><tspan class="cls-31" x="149.08" y="18">r</tspan><tspan x="153.84" y="18">os </tspan><tspan x="0" y="36">son desp</tspan><tspan class="cls-31" x="56.13" y="36">r</tspan><tspan x="60.88" y="36">endidos .</tspan></text><text class="cls-23" transform="translate(607 657.56)"><tspan x="0" y="0">El fuselaje cae unos met</tspan><tspan class="cls-31" x="148.89" y="0">r</tspan><tspan x="153.64" y="0">os </tspan><tspan x="0" y="18">má</tspan><tspan class="cls-29" x="19.74" y="18">s</tspan><tspan class="cls-30" x="25.51" y="18">, es deslizado a </tspan><tspan class="cls-24" x="121.33" y="18">g</tspan><tspan class="cls-33" x="129.63" y="18">r</tspan><tspan x="134.46" y="18">an </tspan><tspan class="cls-31" x="0" y="36">v</tspan><tspan x="7.06" y="36">elocida</tspan><tspan class="cls-31" x="52.27" y="36">d</tspan><tspan x="60.58" y="36">.</tspan></text></g></svg>