<?xml version="1.0" encoding="UTF-8"?><svg id="Capa_1" xmlns="http://www.w3.org/2000/svg" viewBox="0 0 676.87 472.47"><defs><style>.cls-1{letter-spacing:0em;}.cls-2{letter-spacing:-.01em;}.cls-3{letter-spacing:0em;}.cls-4{letter-spacing:0em;}.cls-5{fill:gray;}.cls-5,.cls-6,.cls-7{stroke-width:.5px;}.cls-5,.cls-6,.cls-7,.cls-8{stroke:#000;stroke-miterlimit:10;}.cls-6{fill:#dfdfdf;}.cls-9{font-size:22.85px;}.cls-9,.cls-10,.cls-11,.cls-12{font-family:MyriadPro-Regular, 'Myriad Pro';}.cls-13{letter-spacing:0em;}.cls-14{letter-spacing:0em;}.cls-8{fill:none;}.cls-10{fill:#8cc3e1;}.cls-10,.cls-11,.cls-12{font-size:25px;}.cls-11{fill:#5b7fbd;}.cls-12{fill:#1743d7;}.cls-15{letter-spacing:0em;}.cls-16{letter-spacing:.01em;}</style></defs><g><g><g><text class="cls-9" transform="translate(171.85 466.76)"><tspan x="0" y="0">0</tspan></text><text class="cls-9" transform="translate(293.71 466.76)"><tspan x="0" y="0">5</tspan></text><text class="cls-9" transform="translate(409.71 466.76)"><tspan x="0" y="0">10</tspan></text><text class="cls-9" transform="translate(531.56 466.76)"><tspan x="0" y="0">15</tspan></text><text class="cls-9" transform="translate(653.42 466.76)"><tspan x="0" y="0">20</tspan></text></g><line class="cls-8" x1="177.71" y1="442.7" x2="665.14" y2="442.7"/><g><line class="cls-8" x1="177.71" y1="442.7" x2="177.71" y2="431.64"/><line class="cls-8" x1="299.57" y1="442.7" x2="299.57" y2="431.64"/><line class="cls-8" x1="421.43" y1="442.7" x2="421.43" y2="431.64"/><line class="cls-8" x1="543.29" y1="442.7" x2="543.29" y2="431.64"/><line class="cls-8" x1="665.14" y1="442.7" x2="665.14" y2="431.64"/></g></g><g><line class="cls-8" x1="177.71" y1="442.7" x2="177.71"/><line class="cls-8" x1="177.71" y1="221.35" x2="189.89" y2="221.35"/></g><g><rect class="cls-5" x="177.71" y="286.28" width="365.58" height="106.25"/><rect class="cls-6" x="177.71" y="168.23" width="316.83" height="106.25"/><rect class="cls-7" x="177.71" y="50.17" width="389.95" height="106.25"/></g></g><text class="cls-12" transform="translate(0 103.19)"><tspan class="cls-4" x="0" y="0">S</tspan><tspan x="12.47" y="0">ob</tspan><tspan class="cls-15" x="40.42" y="0">r</tspan><tspan x="48.35" y="0">evivie</tspan><tspan class="cls-14" x="109.15" y="0">n</tspan><tspan class="cls-3" x="122.92" y="0">t</tspan><tspan x="131.05" y="0">es </tspan></text><text class="cls-10" transform="translate(0 219.19)"><tspan class="cls-2" x="0" y="0">C</tspan><tspan x="14.2" y="0">ue</tspan><tspan class="cls-1" x="40.5" y="0">r</tspan><tspan x="48.77" y="0">pos</tspan><tspan x="0" y="30">i</tspan><tspan class="cls-13" x="5.85" y="30">n</tspan><tspan x="19.62" y="30">ta</tspan><tspan class="cls-16" x="39.95" y="30">c</tspan><tspan class="cls-3" x="51.47" y="30">t</tspan><tspan x="59.6" y="30">os</tspan></text><text class="cls-11" transform="translate(0 344.19)"><tspan x="0" y="0">Esquele</tspan><tspan class="cls-3" x="81" y="0">t</tspan><tspan x="89.12" y="0">os</tspan></text></svg>