<?xml version="1.0" encoding="UTF-8"?><svg xmlns="http://www.w3.org/2000/svg" viewBox="0 0 1829 1957.9"><defs><style>.cls-1{stroke:#b9e4c9;stroke-width:3px;}.cls-1,.cls-2,.cls-3,.cls-4,.cls-5,.cls-6{fill:none;stroke-miterlimit:10;}.cls-7,.cls-8{font-size:17px;}.cls-7,.cls-8,.cls-9,.cls-10{font-family:MyriadPro-Regular, 'Myriad Pro';}.cls-7,.cls-9{fill:#379570;}.cls-8,.cls-10{fill:#fd5624;}.cls-11{letter-spacing:0em;}.cls-12{letter-spacing:0em;}.cls-13{letter-spacing:0em;}.cls-14{fill:#b9e4c9;}.cls-15{letter-spacing:0em;}.cls-16{letter-spacing:0em;}.cls-2{stroke:#379570;stroke-width:5px;}.cls-17{letter-spacing:0em;}.cls-18{letter-spacing:0em;}.cls-19{letter-spacing:0em;}.cls-20{letter-spacing:0em;}.cls-3,.cls-4,.cls-5,.cls-6{stroke:#fd5624;}.cls-3,.cls-4,.cls-6{stroke-width:2px;}.cls-21{letter-spacing:0em;}.cls-22{letter-spacing:0em;}.cls-23{letter-spacing:0em;}.cls-24{letter-spacing:0em;}.cls-4{stroke-dasharray:0 5;}.cls-25{letter-spacing:0em;}.cls-26{letter-spacing:0em;}.cls-9{font-size:23px;}.cls-27{letter-spacing:0em;}.cls-28{letter-spacing:0em;}.cls-29{letter-spacing:0em;}.cls-30{letter-spacing:0em;}.cls-31{letter-spacing:0em;}.cls-6{stroke-dasharray:0 0 5.1 5.1;}.cls-32{letter-spacing:0em;}.cls-33{letter-spacing:0em;}.cls-10{font-size:18px;}.cls-34{letter-spacing:0em;}</style></defs><g id="Capa_4"><circle class="cls-14" cx="821" cy="1652" r="19"/><circle class="cls-14" cx="1507" cy="1650" r="19"/></g><g id="Capa_5"><text class="cls-9" transform="translate(815.1 1661.5)"><tspan x="0" y="0">4</tspan></text><path class="cls-1" d="M1181.9,1608l470-266v-155.7s-43.5,8.2-66.5,14.2-61,26-61,26l-18.9,20.7-28.1,52.3s-34,48.4-60.5,42.7-54.5-13.7-54.5-13.7l-27,9-6,65-26,48-54,45-26,36-41.5,27.1-348.8-203.6v52.9l348.8,200.1Z"/><path class="cls-2" d="M1178.5,1172s-29.5,43-43,38-20.1-7.9-20.1-7.9c0,0-37.4-5.1-37.4,16.9s-11.9,33-11.9,33c0,0-25.6,17.3-18.1,29.4s25,52.8,25,52.8c0,0,7.5,6.3,0,20.8s0,34,0,34c0,0,4.5,31.5,18,37"/><path class="cls-4" d="M1352.9,1162.8s23.6-52.2-12.5-62.3"/><path class="cls-4" d="M1275.8,1100.5s-25.4,45-53.4,39"/><path class="cls-1" d="M1631.5,1190.3l-96.1-60.8-38.9-5.1-57.1-52.9-37-13-32-9-30-11-62-40-35.9,19.1-45.1,20.9-45,33-18,30-46.2-7.1-37.8,21.1-47,23-39,63s-2,51-19,58-29,35-29,35l-46,40-37.3,20.5"/><circle class="cls-14" cx="1304.9" cy="1091" r="19"/><circle class="cls-14" cx="1194.9" cy="1153" r="19"/><circle class="cls-14" cx="1333.9" cy="1196" r="19"/><circle class="cls-14" cx="1099.9" cy="1191" r="19"/><circle class="cls-14" cx="1066.9" cy="1308" r="19"/><circle class="cls-14" cx="1072.9" cy="1408" r="19"/><g><line class="cls-3" x1="1346.9" y1="1225" x2="1347.7" y2="1227.4"/><polyline class="cls-6" points="1349.2 1232.3 1356.9 1256 1374.9 1276 1401.9 1293 1434.4 1310.6"/><line class="cls-3" x1="1436.7" y1="1311.8" x2="1438.9" y2="1313"/></g><circle class="cls-4" cx="1333.4" cy="1195.5" r="28.5"/><text class="cls-8" transform="translate(1370 1183.5)"><tspan x="0" y="0">Choque</tspan></text><text class="cls-8" transform="translate(1340 1093.5)"><tspan class="cls-18" x="0" y="0">C</tspan><tspan x="9.7" y="0">ola</tspan></text><text class="cls-8" transform="translate(1199 1188.5)"><tspan class="cls-31" x="0" y="0">F</tspan><tspan x="7.7" y="0">uselaje</tspan></text><text class="cls-7" transform="translate(975 1249.5)"><tspan x="0" y="0">Glaciar</tspan></text><text class="cls-7" transform="translate(954 1386.5)"><tspan class="cls-19" x="0" y="0">R</tspan><tspan x="9.3" y="0">ío </tspan><tspan class="cls-25" x="0" y="20.4">A</tspan><tspan x="10.6" y="20.4">zuf</tspan><tspan class="cls-27" x="32.2" y="20.4">r</tspan><tspan x="37.6" y="20.4">e</tspan></text><text class="cls-7" transform="translate(1249 1332.1)"><tspan class="cls-30" x="0" y="0">V</tspan><tspan x="8.9" y="0">olcan </tspan><tspan class="cls-15" x="0" y="20.4">T</tspan><tspan x="8.2" y="20.4">ingui</tspan><tspan class="cls-12" x="44.5" y="20.4">r</tspan><tspan x="50.1" y="20.4">i</tspan><tspan class="cls-27" x="54.1" y="20.4">r</tspan><tspan x="59.5" y="20.4">ca</tspan></text><polyline class="cls-5" points="1625.4 1370 1662.4 1347.5 1664.9 1172 1617.3 1180.8"/><line class="cls-5" x1="1664.9" y1="1221.1" x2="1679.3" y2="1221.1"/><line class="cls-5" x1="1664.9" y1="1172.1" x2="1679.3" y2="1172.1"/><line class="cls-5" x1="1663.9" y1="1259.1" x2="1678.3" y2="1259.1"/><line class="cls-5" x1="1662.9" y1="1301.1" x2="1677.3" y2="1301.1"/><line class="cls-5" x1="1662.9" y1="1347.1" x2="1677.3" y2="1347.1"/><text class="cls-10" transform="translate(1685.1 1178.5)"><tspan x="0" y="0">4.000 m</tspan></text><text class="cls-10" transform="translate(1685.1 1227.5)"><tspan x="0" y="0">3.000 m</tspan></text><text class="cls-10" transform="translate(1685.1 1265.5)"><tspan x="0" y="0">2.000 m</tspan></text><text class="cls-10" transform="translate(1684.1 1304.5)"><tspan x="0" y="0">1.000 m</tspan></text><text class="cls-10" transform="translate(1685.1 1352.5)"><tspan class="cls-20" x="0" y="0">N</tspan><tspan x="12" y="0">i</tspan><tspan class="cls-28" x="16.2" y="0">v</tspan><tspan x="24.7" y="0">el del mar</tspan></text><text class="cls-9" transform="translate(1328 1205.5)"><tspan x="0" y="0">1</tspan></text><text class="cls-9" transform="translate(1299 1100.5)"><tspan x="0" y="0">2</tspan></text><text class="cls-9" transform="translate(1189 1162.5)"><tspan x="0" y="0">3</tspan></text><text class="cls-9" transform="translate(1094 1200.5)"><tspan x="0" y="0">4</tspan></text><text class="cls-9" transform="translate(1060 1316.5)"><tspan x="0" y="0">5</tspan></text><text class="cls-9" transform="translate(1066 1416.5)"><tspan x="0" y="0">6</tspan></text><text class="cls-9" transform="translate(1500.1 1658.5)"><tspan x="0" y="0">6</tspan></text><text class="cls-7" transform="translate(857.1 1651.4)"><tspan class="cls-24" x="0" y="0">C</tspan><tspan x="9.7" y="0">anessa y </tspan><tspan class="cls-34" x="72.8" y="0">P</tspan><tspan x="81.4" y="0">a</tspan><tspan class="cls-11" x="89.6" y="0">r</tspan><tspan class="cls-26" x="95.2" y="0">r</tspan><tspan x="100.7" y="0">ado llegan a la </tspan><tspan x="0" y="20.4">cumb</tspan><tspan class="cls-27" x="40.8" y="20.4">r</tspan><tspan class="cls-15" x="46.2" y="20.4">e</tspan><tspan x="54.5" y="20.4">, bajan </tspan><tspan class="cls-13" x="104.9" y="20.4">c</tspan><tspan x="112.4" y="20.4">on cue</tspan><tspan class="cls-27" x="160.3" y="20.4">r</tspan><tspan x="165.7" y="20.4">das y </tspan><tspan x="0" y="40.8">siguen por el </tspan><tspan class="cls-22" x="95.4" y="40.8">v</tspan><tspan x="103.5" y="40.8">alle de nie</tspan><tspan class="cls-27" x="175.5" y="40.8">v</tspan><tspan class="cls-15" x="183.5" y="40.8">e</tspan><tspan x="191.8" y="40.8">.</tspan></text><g><circle class="cls-14" cx="1160" cy="1652" r="19"/><text class="cls-9" transform="translate(1153.1 1660.5)"><tspan x="0" y="0">5</tspan></text><text class="cls-7" transform="translate(1187.1 1648.4)"><tspan class="cls-29" x="0" y="0">V</tspan><tspan x="8.9" y="0">en por p</tspan><tspan class="cls-12" x="68.3" y="0">r</tspan><tspan x="74" y="0">ime</tspan><tspan class="cls-26" x="100.6" y="0">r</tspan><tspan x="106.1" y="0">a </tspan><tspan class="cls-27" x="117.9" y="0">v</tspan><tspan x="125.9" y="0">ez </tspan><tspan class="cls-26" x="145.3" y="0">r</tspan><tspan x="150.8" y="0">ast</tspan><tspan class="cls-27" x="171.3" y="0">r</tspan><tspan x="176.7" y="0">os de </tspan><tspan class="cls-27" x="0" y="20.4">v</tspan><tspan x="8" y="20.4">egetación , </tspan><tspan class="cls-22" x="89.5" y="20.4">v</tspan><tspan x="97.6" y="20.4">an en di</tspan><tspan class="cls-27" x="153.9" y="20.4">r</tspan><tspan x="159.3" y="20.4">e</tspan><tspan class="cls-17" x="167.8" y="20.4">c</tspan><tspan x="175.3" y="20.4">ción </tspan><tspan x="0" y="40.8">oes</tspan><tspan class="cls-17" x="24.6" y="40.8">t</tspan><tspan x="30.1" y="40.8">e del </tspan><tspan class="cls-11" x="67.9" y="40.8">r</tspan><tspan x="73.6" y="40.8">í</tspan><tspan class="cls-16" x="77.6" y="40.8">o</tspan><tspan x="86.5" y="40.8">.</tspan></text></g><text class="cls-7" transform="translate(1534.1 1648.4)"><tspan class="cls-29" x="0" y="0">V</tspan><tspan x="8.9" y="0">en animale</tspan><tspan class="cls-18" x="87" y="0">s</tspan><tspan x="93.5" y="0">, por lo que piensan que </tspan><tspan x="0" y="20.4">debe haber ge</tspan><tspan class="cls-22" x="102.9" y="20.4">n</tspan><tspan class="cls-17" x="112.3" y="20.4">t</tspan><tspan x="117.8" y="20.4">e en el se</tspan><tspan class="cls-32" x="182.9" y="20.4">c</tspan><tspan class="cls-17" x="190.7" y="20.4">t</tspan><tspan x="196.2" y="20.4">o</tspan><tspan class="cls-33" x="205.5" y="20.4">r</tspan><tspan x="210.2" y="20.4">.</tspan><tspan class="cls-11" x="0" y="40.8">R</tspan><tspan x="9.2" y="40.8">e</tspan><tspan class="cls-17" x="17.7" y="40.8">c</tspan><tspan x="25.2" y="40.8">ono</tspan><tspan class="cls-13" x="53.3" y="40.8">c</tspan><tspan x="60.9" y="40.8">en a un homb</tspan><tspan class="cls-27" x="159.2" y="40.8">r</tspan><tspan x="164.6" y="40.8">e en caballo y </tspan><tspan x="0" y="61.2">piden </tspan><tspan class="cls-21" x="44.8" y="61.2">a</tspan><tspan x="52.9" y="61.2">yuda. Dan </tspan><tspan class="cls-23" x="127.7" y="61.2">a</tspan><tspan x="135.7" y="61.2">viso de que son los </tspan><tspan x="0" y="81.6">Urugu</tspan><tspan class="cls-21" x="44.8" y="81.6">a</tspan><tspan class="cls-27" x="52.9" y="81.6">y</tspan><tspan x="60.7" y="81.6">os del a</tspan><tspan class="cls-17" x="114.3" y="81.6">c</tspan><tspan x="121.8" y="81.6">cide</tspan><tspan class="cls-22" x="151.5" y="81.6">n</tspan><tspan class="cls-17" x="160.9" y="81.6">t</tspan><tspan class="cls-15" x="166.4" y="81.6">e</tspan><tspan x="174.7" y="81.6">.</tspan></text></g></svg>