<?xml version="1.0" encoding="UTF-8"?><svg xmlns="http://www.w3.org/2000/svg" viewBox="0 0 994.6 718.62"><defs><style>.cls-1{letter-spacing:.02em;}.cls-2{stroke-dasharray:0 0 2.33 2.33;}.cls-2,.cls-3,.cls-4,.cls-5,.cls-6,.cls-7,.cls-8,.cls-9,.cls-10,.cls-11,.cls-12,.cls-13,.cls-14,.cls-15,.cls-16{stroke-miterlimit:10;}.cls-2,.cls-3,.cls-4,.cls-5,.cls-6,.cls-7,.cls-9,.cls-11,.cls-13,.cls-14,.cls-15,.cls-16{stroke:#fd5624;}.cls-2,.cls-3,.cls-5,.cls-6,.cls-7,.cls-8,.cls-9,.cls-13,.cls-14,.cls-15,.cls-16{stroke-linecap:round;}.cls-2,.cls-3,.cls-6,.cls-7,.cls-8,.cls-9,.cls-10,.cls-11,.cls-13,.cls-14,.cls-15,.cls-16{fill:none;}.cls-17,.cls-12{fill:#fd5624;}.cls-18,.cls-19{fill:#379570;}.cls-19{font-family:MyriadPro-Regular, 'Myriad Pro';font-size:15px;}.cls-3{stroke-dasharray:0 2;}.cls-4,.cls-5{fill:#fff;}.cls-4,.cls-5,.cls-8,.cls-9,.cls-10,.cls-11,.cls-12{stroke-width:2px;}.cls-6{stroke-dasharray:0 0 1.97 1.97;}.cls-20{letter-spacing:0em;}.cls-21{letter-spacing:0em;}.cls-22{letter-spacing:0em;}.cls-8{stroke:#379570;}.cls-23{letter-spacing:0em;}.cls-10{stroke:#b9e4c9;}.cls-12{opacity:.52;stroke:#fff;}.cls-24{letter-spacing:0em;}.cls-13{stroke-dasharray:0 0 1.94 1.94;}.cls-25{letter-spacing:-.01em;}.cls-26{letter-spacing:0em;}.cls-14{stroke-dasharray:0 0 1.93 1.93;}.cls-27{letter-spacing:0em;}.cls-15{stroke-dasharray:0 0 1.77 1.77;}.cls-28{letter-spacing:0em;}.cls-29{letter-spacing:0em;}.cls-16{stroke-dasharray:0 0 2.34 2.34;}</style></defs><g id="Capa_4"><path class="cls-10" d="M99.15,192.63l-3.34,110.09,399.66,206.42,231.25,105.08s107.16,37.47,151.66,89.19l114.31-66.23s-89.48-58.47-124.14-126.26-165.55-114.18-165.55-114.18l-47.53-27.07-26.17,2.46-7.62-13.9-10.91-10.17-17.89-22.19-25,15.01-23.75-5.93-29.93,23.28-14.5,38.52s-11.08,21.84-27.95,19.61-88.12-68.3-88.12-68.3c0,0-3.13-13.72-38.94-45.32s-128.55-64.73-128.55-64.73c0,0-35.22-17.39-48.74-41.13l-68.26-4.23Z"/></g><g id="Capa_7"><circle class="cls-12" cx="567.39" cy="394.62" r="36"/></g><g id="Capa_5"><polyline class="cls-10" points="466.64 429.4 498.7 420.5 498.7 441.54 526.03 441.54 544.25 481.18 598.09 454.24"/><path class="cls-10" d="M582.59,493.42l15.49-18.61,6.8,31.03,11.27-31.03,16.94,41.16,42.25-5.07,32.16,31.31s22.96,3.5,41.92,24.45,31.05,36.14,60.5,47.54"/><path class="cls-10" d="M745.93,441.54s94.91,31.08,157.18,152.08c0,0,17.35,30.99,38.31,35.99"/><polyline class="cls-10" points="99.15 192.63 241.69 168.33 400.3 226.45 477.69 247.14 485.08 293.47 531.5 293.47 610.39 283.62 678.39 332.62 754.91 325.85 771.89 393.5 819.93 393.5 854.39 485.3"/></g><g id="Capa_3"><g><path class="cls-11" d="M27.89,46.12s48,1,84,17c26.57,11.81,12.29,13.81,2.98,14.05-3.57,.09-7.13-.36-10.57-1.35-15.61-4.48-66.29-19.58-76.42-29.7Z"/><polyline class="cls-11" points="41.22 46.93 41.89 27.12 48.89 29.12 52.44 48.1"/><polyline class="cls-11" points="37.68 52.75 28.9 70.52 36.01 72.07 48.12 57.01"/><polyline class="cls-11" points="78.54 52.54 79.89 46.12 82.89 9.12 87.89 10.12 98.18 57.87"/><path class="cls-11" d="M91.89,30.12l5.91,2.22c1.19,.45,1.85,1.71,1.55,2.94l-.88,3.53c-.32,1.29-3.58,1.31-4.58,1.31"/><path class="cls-11" d="M95.39,44.62l6.31,2.33c1.27,.47,1.98,1.8,1.65,3.09l-.94,3.7c-.34,1.36-3.82,1.38-4.88,1.38"/><g><polyline class="cls-11" points="74.31 66.76 72.1 72.93 55.36 106.06 60.14 107.82 93.84 72.45"/><path class="cls-11" d="M73.99,92.84l6.2,1.19c1.25,.24,2.48-.49,2.86-1.71l1.09-3.47c.4-1.27-2.37-2.98-3.22-3.51"/><path class="cls-11" d="M84.54,82.3l6.59,1.3c1.33,.26,2.63-.5,3.02-1.78l1.13-3.65c.41-1.34-2.54-3.16-3.45-3.72"/></g></g><g><path class="cls-11" d="M514.21,412.55s39.3-27.57,77.8-35.95c28.41-6.18,18.08,3.87,10.71,9.57-2.83,2.19-5.97,3.92-9.32,5.16-15.24,5.62-65.04,23.4-79.19,21.22Z"/><polyline class="cls-11" points="525.45 405.32 514.27 388.95 521.1 386.42 535.19 399.63"/><polyline class="cls-11" points="526.03 412.11 529.46 431.63 536.11 428.67 536.97 409.37"/><polyline class="cls-11" points="558.87 387.78 556.15 381.8 536.7 350.19 541.32 348.04 577.85 380.47"/><path class="cls-11" d="M556.37,361.81l6.08-1.71c1.22-.34,2.51,.29,2.99,1.46l1.37,3.37c.5,1.23-2.11,3.17-2.92,3.76"/><path class="cls-11" d="M567.77,371.43l6.46-1.85c1.3-.37,2.66,.28,3.16,1.52l1.43,3.54c.52,1.3-2.26,3.37-3.12,4"/><g><polyline class="cls-11" points="563.86 401.75 565.73 408.04 571.81 444.65 576.71 443.24 582.97 394.79"/><path class="cls-11" d="M579.03,422.98l5.71-2.7c1.15-.54,1.7-1.86,1.29-3.06l-1.17-3.44c-.43-1.26-3.67-1.01-4.67-.92"/><path class="cls-11" d="M581.3,408.23l6.09-2.85c1.22-.57,1.82-1.96,1.38-3.22l-1.25-3.61c-.46-1.32-3.92-1.05-4.98-.96"/></g></g><g><path class="cls-4" d="M148.6,120.58s32.58,35.26,46.03,72.29c9.93,27.33-1.42,18.43-8.05,11.9-2.55-2.51-4.69-5.39-6.36-8.55-7.61-14.35-31.89-61.33-31.62-75.64Z"/><polyline class="cls-11" points="157.26 130.74 171.99 117.48 175.41 123.91 164.2 139.64"/><polyline class="cls-11" points="150.61 132.23 131.72 138.24 135.55 144.43 154.79 142.71"/><polyline class="cls-11" points="179.12 161.52 184.67 158.03 213.4 134.52 216.15 138.81 188.9 179.35"/><path class="cls-11" d="M204.52,155.57l2.51,5.8c.5,1.17,.05,2.52-1.05,3.16l-3.15,1.81c-1.16,.66-3.43-1.67-4.12-2.39"/><path class="cls-4" d="M190.42,176.97c.74,.77,3.16,3.25,4.38,2.56l3.32-1.89c1.16-.66,1.63-2.09,1.08-3.33l-2.7-6.16-6.08,8.82Z"/><polygon class="cls-4" points="175.39 186.35 126.54 186.62 124.48 181.95 159.96 171.03 165.94 168.33 175.39 186.35"/><path class="cls-11" d="M146.93,186.2l3.44,5.29c.69,1.06,2.07,1.44,3.21,.87l3.25-1.62c1.19-.6,.51-3.78,.29-4.75"/><path class="cls-11" d="M161.84,186.48l3.64,5.65c.73,1.14,2.18,1.54,3.38,.94l3.41-1.72c1.25-.63,.52-4.02,.29-5.06"/><line class="cls-9" x1="190.42" y1="111.64" x2="197.63" y2="128.56"/><line class="cls-9" x1="191.42" y1="103.64" x2="198.63" y2="120.56"/></g><g><path class="cls-4" d="M234.03,265.24s48.01-.58,84.51,14.23c26.94,10.93,12.74,13.4,3.44,13.95-3.57,.21-7.14-.13-10.61-1-15.75-3.96-66.9-17.39-77.35-27.17Z"/><polyline class="cls-11" points="247.39 265.62 247.4 245.79 254.46 247.56 258.64 266.42"/><polyline class="cls-11" points="244.04 271.55 235.85 289.6 243.01 290.91 254.61 275.47"/><polygon class="cls-4" points="304.67 274.67 292.81 227.29 287.78 226.45 286 263.53 284.87 269.99 304.67 274.67"/><path class="cls-11" d="M297.47,247.14l5.98,2.02c1.2,.41,1.91,1.65,1.64,2.89l-.77,3.55c-.28,1.3-3.53,1.43-4.53,1.46"/><path class="cls-11" d="M301.45,261.52l6.38,2.12c1.28,.43,2.04,1.73,1.75,3.04l-.82,3.73c-.3,1.37-3.77,1.5-4.83,1.54"/><g><polyline class="cls-11" points="281.11 284.34 279.11 290.59 263.46 324.25 268.3 325.85 300.82 289.39"/><path class="cls-11" d="M281.65,310.43l6.24,.99c1.25,.2,2.46-.57,2.8-1.8l.97-3.5c.36-1.28-2.47-2.91-3.34-3.4"/><path class="cls-11" d="M291.85,299.54l6.63,1.09c1.33,.22,2.61-.59,2.96-1.88l1.01-3.69c.37-1.35-2.64-3.08-3.57-3.61"/></g><line class="cls-9" x1="241.69" y1="312.73" x2="260.04" y2="313.99"/><line class="cls-9" x1="235.02" y1="308.21" x2="253.36" y2="309.47"/><line class="cls-9" x1="261.69" y1="236.73" x2="280.04" y2="237.99"/><line class="cls-9" x1="255.02" y1="232.21" x2="273.36" y2="233.47"/></g><g><path class="cls-4" d="M364.5,401.25s44.49-18.05,83.88-17.58c29.07,.35,16.75,7.83,8.29,11.73-3.25,1.5-6.69,2.49-10.24,2.94-16.11,2.06-68.63,8.21-81.93,2.91Z"/><polyline class="cls-11" points="377.07 396.73 369.85 378.26 377.07 377.33 387.84 393.37"/><polyline class="cls-11" points="376.11 403.47 375.08 423.27 382.22 421.88 387.39 403.26"/><polygon class="cls-4" points="433.72 384.27 405.39 344.47 400.4 345.53 412.27 380.7 413.57 387.13 433.72 384.27"/><path class="cls-11" d="M416.97,361.26l6.31-.3c1.27-.06,2.38,.84,2.58,2.09l.58,3.59c.21,1.32-2.77,2.62-3.69,3.01"/><path class="cls-11" d="M425.91,373.2l6.71-.35c1.35-.07,2.53,.87,2.74,2.19l.6,3.77c.22,1.38-2.96,2.77-3.94,3.19"/><g><polyline class="cls-11" points="415.3 401.86 415.72 408.41 413.43 445.46 418.52 445.18 435.49 399.38"/><path class="cls-11" d="M425.32,425.95l6.17-1.35c1.24-.27,2.08-1.43,1.95-2.7l-.37-3.62c-.14-1.33-3.36-1.81-4.34-1.95"/><path class="cls-11" d="M430.85,412.1l6.57-1.41c1.32-.28,2.21-1.5,2.07-2.83l-.4-3.8c-.15-1.39-3.58-1.9-4.64-2.06"/></g><line class="cls-9" x1="433.69" y1="362.73" x2="452.04" y2="363.99"/><line class="cls-9" x1="427.02" y1="358.21" x2="445.36" y2="359.47"/><line class="cls-9" x1="382.54" y1="441.54" x2="400.3" y2="436.76"/><line class="cls-9" x1="374.76" y1="439.44" x2="392.52" y2="434.66"/></g><g><line class="cls-7" x1="567.89" y1="370.26" x2="568.61" y2="369.57"/><line class="cls-16" x1="570.3" y1="367.95" x2="576.23" y2="362.3"/><polyline class="cls-7" points="577.08 361.49 577.8 360.8 578.36 361.63"/><line class="cls-2" x1="579.66" y1="363.56" x2="584.21" y2="370.32"/><polyline class="cls-7" points="584.86 371.29 585.42 372.12 585.73 371.16"/><line class="cls-13" x1="586.33" y1="369.32" x2="593.27" y2="348.13"/><polyline class="cls-7" points="593.57 347.21 593.89 346.26 593.89 347.26"/><line class="cls-14" x1="593.89" y1="349.19" x2="593.89" y2="363.65"/><polyline class="cls-7" points="593.89 364.62 593.89 365.62 594.82 365.25"/><line class="cls-6" x1="596.64" y1="364.53" x2="603.04" y2="361.99"/><polyline class="cls-7" points="603.96 361.63 604.89 361.26 604.89 362.26"/><line class="cls-15" x1="604.89" y1="364.03" x2="604.89" y2="370.23"/><line class="cls-7" x1="604.89" y1="371.12" x2="604.89" y2="372.12"/></g><polyline class="cls-3" points="556.37 419.31 547.76 425.95 556.37 428.89 544.14 437.86 562.5 430.58 557.27 441.54 562.5 439.15 566.88 467.18 570.26 449.91 578.88 453.72 579.03 447.51"/><g><path class="cls-9" d="M717.2,490.47s-3.26,3.45-8.08-1.17"/><path class="cls-9" d="M717.06,494.59s-3.26,3.45-8.08-1.17"/><g><g><path class="cls-11" d="M667.68,451.86c-12.71-4.73-23.83-9.71-28.02-13.87,0,0,13.54,.22,31.64,2.81l-2.38,2.09-1.24,8.97Z"/><polyline class="cls-11" points="653 438.75 653.58 418.93 660.59 420.9 664.22 439.87"/><polyline class="cls-11" points="649.48 444.58 640.78 462.39 647.9 463.91 659.94 448.8"/></g><g><path class="cls-11" d="M675.35,451.81c13.72,11.72,29.23,23.43,36.27,28.65,2.87,2.13,6.04,3.81,9.42,4.98,8.8,3.05,22.87,6.19,2.15-14.2-11.45-11.26-25.64-20.89-38.43-28.35l-5.67,.67v3.87l-3.74,4.39Z"/><polyline class="cls-11" points="695.68 449.62 699.2 444.08 715.01 410.49 719.34 413.18 712.19 461.51"/><path class="cls-11" d="M716.05,433.31l4.76,4.15c.96,.84,1.13,2.26,.41,3.3l-2.06,2.99c-.76,1.1-3.81-.03-4.75-.38"/><path class="cls-11" d="M714.24,448.12l5.09,4.4c1.02,.88,1.22,2.38,.46,3.47l-2.18,3.14c-.8,1.15-4.06-.05-5.05-.43"/><g><polyline class="cls-11" points="686.72 461.44 682.49 466.45 655.17 491.58 659.03 494.91 703.01 473.63"/><path class="cls-11" d="M677.26,485.75l5.39,3.3c1.08,.66,2.49,.41,3.27-.59l2.24-2.87c.82-1.05-1.17-3.63-1.78-4.41"/><path class="cls-11" d="M690.84,479.59l5.72,3.54c1.15,.71,2.63,.45,3.45-.6l2.34-3.02c.86-1.11-1.26-3.85-1.92-4.69"/></g></g><path class="cls-9" d="M647.39,412.62s2.18-4.21,8.09-1.11"/><path class="cls-9" d="M646.39,408.62s2.18-4.21,8.09-1.11"/><polyline class="cls-3" points="671.29 433.31 673.39 424.62 677.26 434.5 684.77 431.87 684.77 436 690.84 434.5 695.68 424.62 695.68 436.98"/></g></g><g><path class="cls-11" d="M761.35,530.81c13.72,11.72,29.23,23.43,36.27,28.65,2.87,2.13,6.04,3.81,9.42,4.98,8.8,3.05,22.87,6.19,2.15-14.2-11.45-11.26-25.64-20.89-38.43-28.35l-2.37,4.73-3,1-4.04,3.2Z"/><polygon class="cls-11" points="807.83 533.9 800.24 485.64 795.31 484.36 790.23 521.14 788.53 527.47 807.83 533.9"/><path class="cls-11" d="M803.11,505.84l5.78,2.55c1.16,.51,1.76,1.81,1.38,3.03l-1.08,3.47c-.4,1.27-3.65,1.11-4.64,1.05"/><line class="cls-7" x1="745.93" y1="526.22" x2="771.89" y2="548.12"/><line class="cls-7" x1="741.93" y1="526.22" x2="767.89" y2="548.12"/><line class="cls-7" x1="802.93" y1="539.22" x2="828.89" y2="561.12"/><line class="cls-7" x1="809.93" y1="542.22" x2="835.89" y2="564.12"/></g><g><path class="cls-11" d="M838.6,624.94c15.91,8.52,33.57,16.63,41.56,20.23,3.26,1.47,6.72,2.43,10.27,2.85,9.25,1.09,23.66,1.15-.94-14.33-13.59-8.55-29.51-14.93-43.6-19.47l-7.28,10.73Z"/><path class="cls-11" d="M839.39,633.62s2-3,5,2c0,0,3.85-3,5.42,0,0,0,4.58,0,5.58,6"/><path class="cls-11" d="M868.66,650.91s.31-3.59,5.34-.66c0,0,1.93-4.48,4.75-2.61,0,0,4.01-2.21,7.78,2.57"/><path class="cls-11" d="M894.39,653.62s-19,6-32-2"/><path class="cls-11" d="M884.21,659.09s-19.7,2.99-31.31-6.93"/><path class="cls-11" d="M892.39,643.62s2-3,4-2"/><circle class="cls-17" cx="850.39" cy="625.62" r="1"/><circle class="cls-17" cx="854.39" cy="627.62" r="1"/><circle class="cls-17" cx="858.39" cy="629.62" r="1"/><circle class="cls-17" cx="862.39" cy="631.62" r="1"/></g><line class="cls-5" x1="4" y1="46.12" x2="22.33" y2="52.75"/><line class="cls-5" x1="1" y1="40.12" x2="19.33" y2="46.75"/></g><g id="Capa_6"><polyline class="cls-8" points="124.48 43.43 161.84 43.43 173.57 9.12"/><polyline class="cls-8" points="304.39 228.62 341.68 228.62 353.39 173.62"/><polyline class="cls-8" points="598.39 336.62 640.25 336.62 653.39 237.62"/><polyline class="cls-8" points="613.39 574.62 655.25 574.62 668.39 503.62"/><polyline class="cls-8" points="780.39 682.62 822.25 682.62 835.39 644.62"/><g><path class="cls-18" d="M191.04,7.82h-3.93v3.65h4.38v1.09h-5.68V2.45h5.46v1.09h-4.15v3.19h3.93v1.08Z"/><path class="cls-18" d="M193.14,1.91h1.32V12.56h-1.32V1.91Z"/><path class="cls-18" d="M199.86,7.67c0-.93-.03-1.68-.06-2.37h1.18l.06,1.25h.03c.54-.89,1.4-1.41,2.58-1.41,1.75,0,3.08,1.48,3.08,3.69,0,2.61-1.59,3.9-3.3,3.9-.96,0-1.8-.42-2.24-1.14h-.03v3.94h-1.31V7.67Zm1.31,1.93c0,.2,.03,.38,.06,.54,.24,.92,1.03,1.54,1.98,1.54,1.4,0,2.2-1.14,2.2-2.8,0-1.46-.76-2.7-2.16-2.7-.9,0-1.74,.64-2,1.63-.04,.17-.09,.36-.09,.54v1.24Z"/><path class="cls-18" d="M209.86,3.26c.02,.45-.31,.81-.84,.81-.47,0-.79-.36-.79-.81s.34-.82,.82-.82,.81,.36,.81,.82Zm-1.47,9.3V5.3h1.32v7.26h-1.32Z"/><path class="cls-18" d="M211.9,1.91h1.32V12.56h-1.32V1.91Z"/><path class="cls-18" d="M222.01,8.87c0,2.69-1.86,3.85-3.61,3.85-1.96,0-3.48-1.44-3.48-3.73,0-2.43,1.59-3.85,3.6-3.85s3.49,1.52,3.49,3.73Zm-5.76,.08c0,1.59,.92,2.79,2.21,2.79s2.21-1.18,2.21-2.82c0-1.23-.62-2.79-2.18-2.79s-2.23,1.44-2.23,2.82Z"/><path class="cls-18" d="M225.27,3.21v2.08h1.89v1h-1.89v3.92c0,.9,.25,1.41,.99,1.41,.35,0,.6-.04,.77-.09l.06,.99c-.26,.1-.66,.18-1.17,.18-.62,0-1.11-.19-1.43-.55-.38-.39-.51-1.04-.51-1.89v-3.96h-1.12v-1h1.12v-1.74l1.29-.35Z"/><path class="cls-18" d="M235.12,8.87c0,2.69-1.86,3.85-3.61,3.85-1.96,0-3.48-1.44-3.48-3.73,0-2.43,1.59-3.85,3.6-3.85s3.49,1.52,3.49,3.73Zm-5.76,.08c0,1.59,.92,2.79,2.21,2.79s2.21-1.18,2.21-2.82c0-1.23-.62-2.79-2.18-2.79s-2.23,1.44-2.23,2.82Z"/><path class="cls-18" d="M245.14,12.29c-.34,.18-1.11,.42-2.08,.42-2.19,0-3.62-1.48-3.62-3.7s1.53-3.85,3.9-3.85c.78,0,1.47,.19,1.83,.38l-.3,1.02c-.31-.18-.81-.35-1.53-.35-1.67,0-2.56,1.23-2.56,2.75,0,1.68,1.08,2.71,2.52,2.71,.75,0,1.25-.19,1.62-.36l.22,.99Z"/><path class="cls-18" d="M246.69,7.56c0-.85-.01-1.59-.06-2.27h1.15l.04,1.42h.06c.33-.97,1.12-1.59,2.01-1.59,.15,0,.25,.02,.38,.04v1.25c-.13-.03-.27-.04-.45-.04-.93,0-1.59,.71-1.77,1.69-.03,.18-.06,.39-.06,.62v3.87h-1.31V7.56Z"/><path class="cls-18" d="M252.18,9.17c.03,1.78,1.17,2.52,2.49,2.52,.94,0,1.52-.17,2.01-.38l.23,.95c-.46,.21-1.26,.45-2.42,.45-2.23,0-3.57-1.47-3.57-3.66s1.29-3.92,3.4-3.92c2.37,0,3,2.08,3,3.42,0,.27-.03,.48-.04,.62h-5.1Zm3.87-.95c.02-.84-.34-2.15-1.83-2.15-1.33,0-1.92,1.23-2.02,2.15h3.85Z"/><path class="cls-18" d="M259.69,9.17c.03,1.78,1.17,2.52,2.49,2.52,.94,0,1.52-.17,2.01-.38l.23,.95c-.46,.21-1.26,.45-2.42,.45-2.23,0-3.57-1.47-3.57-3.66s1.29-3.92,3.4-3.92c2.37,0,3,2.08,3,3.42,0,.27-.03,.48-.04,.62h-5.1Zm3.87-.95c.02-.84-.34-2.15-1.83-2.15-1.33,0-1.92,1.23-2.02,2.15h3.85Z"/><path class="cls-18" d="M269.65,1.91h1.32V6.44h.03c.21-.38,.54-.71,.94-.93,.39-.23,.85-.38,1.35-.38,.98,0,2.54,.6,2.54,3.1v4.32h-1.32v-4.17c0-1.17-.44-2.16-1.68-2.16-.85,0-1.53,.6-1.77,1.32-.08,.18-.09,.38-.09,.63v4.38h-1.32V1.91Z"/><path class="cls-18" d="M282,12.56l-.1-.92h-.04c-.4,.57-1.19,1.08-2.22,1.08-1.47,0-2.22-1.04-2.22-2.08,0-1.75,1.56-2.71,4.36-2.7v-.15c0-.6-.17-1.68-1.65-1.68-.67,0-1.38,.21-1.89,.54l-.3-.87c.6-.39,1.47-.65,2.39-.65,2.22,0,2.76,1.52,2.76,2.97v2.71c0,.63,.03,1.24,.12,1.74h-1.2Zm-.19-3.71c-1.44-.03-3.08,.23-3.08,1.64,0,.85,.57,1.26,1.25,1.26,.94,0,1.54-.6,1.75-1.21,.04-.13,.08-.29,.08-.42v-1.26Z"/><path class="cls-18" d="M285.15,12.56c.03-.5,.06-1.23,.06-1.88V1.91h1.31V6.47h.03c.47-.81,1.31-1.33,2.48-1.33,1.8,0,3.07,1.5,3.06,3.71,0,2.59-1.64,3.88-3.25,3.88-1.05,0-1.89-.4-2.43-1.36h-.04l-.06,1.2h-1.14Zm1.36-2.91c0,.16,.03,.33,.06,.48,.25,.91,1.02,1.54,1.98,1.54,1.38,0,2.2-1.12,2.2-2.79,0-1.46-.75-2.7-2.16-2.7-.9,0-1.74,.61-2.01,1.62-.03,.15-.08,.33-.08,.54v1.31Z"/><path class="cls-18" d="M294.48,9.17c.03,1.78,1.17,2.52,2.49,2.52,.94,0,1.52-.17,2.01-.38l.23,.95c-.46,.21-1.26,.45-2.42,.45-2.23,0-3.57-1.47-3.57-3.66s1.29-3.92,3.4-3.92c2.37,0,3,2.08,3,3.42,0,.27-.03,.48-.04,.62h-5.1Zm3.87-.95c.02-.84-.34-2.15-1.83-2.15-1.33,0-1.92,1.23-2.02,2.15h3.85Z"/><path class="cls-18" d="M301.26,7.56c0-.85-.01-1.59-.06-2.27h1.15l.04,1.42h.06c.33-.97,1.12-1.59,2.01-1.59,.15,0,.26,.02,.38,.04v1.25c-.13-.03-.27-.04-.45-.04-.93,0-1.59,.71-1.77,1.69-.03,.18-.06,.39-.06,.62v3.87h-1.31V7.56Z"/><path class="cls-18" d="M309.34,1.91h1.32V12.56h-1.32V1.91Z"/><path class="cls-18" d="M312.88,1.91h1.32V12.56h-1.32V1.91Z"/><path class="cls-18" d="M317.16,9.17c.03,1.78,1.17,2.52,2.49,2.52,.94,0,1.52-.17,2.01-.38l.23,.95c-.46,.21-1.26,.45-2.42,.45-2.23,0-3.57-1.47-3.57-3.66s1.29-3.92,3.4-3.92c2.37,0,3,2.08,3,3.42,0,.27-.03,.48-.04,.62h-5.1Zm3.87-.95c.02-.84-.34-2.15-1.83-2.15-1.33,0-1.92,1.23-2.02,2.15h3.85Z"/><path class="cls-18" d="M330.19,5.3c-.03,.52-.06,1.11-.06,2v4.21c0,1.66-.33,2.68-1.03,3.31-.71,.66-1.73,.87-2.64,.87s-1.83-.21-2.41-.6l.33-1c.48,.3,1.23,.57,2.13,.57,1.35,0,2.34-.71,2.34-2.54v-.81h-.03c-.4,.68-1.19,1.22-2.31,1.22-1.8,0-3.09-1.53-3.09-3.54,0-2.46,1.6-3.85,3.27-3.85,1.26,0,1.95,.66,2.27,1.26h.03l.06-1.1h1.15Zm-1.36,2.86c0-.22-.02-.42-.08-.6-.24-.77-.88-1.4-1.84-1.4-1.26,0-2.16,1.06-2.16,2.74,0,1.43,.72,2.61,2.15,2.61,.81,0,1.54-.51,1.83-1.35,.07-.23,.1-.48,.1-.71v-1.31Z"/><path class="cls-18" d="M336.34,12.56l-.1-.92h-.04c-.41,.57-1.19,1.08-2.22,1.08-1.47,0-2.22-1.04-2.22-2.08,0-1.75,1.56-2.71,4.36-2.7v-.15c0-.6-.17-1.68-1.65-1.68-.67,0-1.38,.21-1.89,.54l-.3-.87c.6-.39,1.47-.65,2.39-.65,2.22,0,2.76,1.52,2.76,2.97v2.71c0,.63,.03,1.24,.12,1.74h-1.2Zm-.19-3.71c-1.44-.03-3.08,.23-3.08,1.64,0,.85,.57,1.26,1.25,1.26,.94,0,1.54-.6,1.75-1.21,.04-.13,.08-.29,.08-.42v-1.26Z"/><path class="cls-18" d="M345.82,1.91V10.68c0,.65,.02,1.38,.06,1.88h-1.19l-.06-1.26h-.03c-.41,.81-1.29,1.42-2.48,1.42-1.75,0-3.1-1.48-3.1-3.69-.01-2.42,1.48-3.9,3.25-3.9,1.11,0,1.86,.52,2.19,1.11h.03V1.91h1.32Zm-1.32,6.34c0-.17-.02-.39-.06-.56-.2-.84-.92-1.53-1.91-1.53-1.36,0-2.17,1.2-2.17,2.8,0,1.47,.72,2.69,2.15,2.69,.88,0,1.69-.58,1.94-1.58,.04-.18,.06-.36,.06-.57v-1.26Z"/><path class="cls-18" d="M354.58,8.87c0,2.69-1.86,3.85-3.61,3.85-1.96,0-3.48-1.44-3.48-3.73,0-2.43,1.59-3.85,3.6-3.85s3.49,1.52,3.49,3.73Zm-5.76,.08c0,1.59,.92,2.79,2.21,2.79s2.21-1.18,2.21-2.82c0-1.23-.62-2.79-2.18-2.79s-2.23,1.44-2.23,2.82Z"/><path class="cls-18" d="M363.44,12.56l-.1-.92h-.04c-.41,.57-1.19,1.08-2.22,1.08-1.47,0-2.22-1.04-2.22-2.08,0-1.75,1.56-2.71,4.36-2.7v-.15c0-.6-.17-1.68-1.65-1.68-.67,0-1.38,.21-1.89,.54l-.3-.87c.6-.39,1.47-.65,2.39-.65,2.22,0,2.76,1.52,2.76,2.97v2.71c0,.63,.03,1.24,.12,1.74h-1.2Zm-.19-3.71c-1.44-.03-3.08,.23-3.08,1.64,0,.85,.57,1.26,1.25,1.26,.94,0,1.54-.6,1.75-1.21,.04-.13,.08-.29,.08-.42v-1.26Z"/><path class="cls-18" d="M192.87,30.23c-.48,.24-1.44,.48-2.67,.48-2.85,0-4.99-1.8-4.99-5.11s2.15-5.31,5.28-5.31c1.26,0,2.05,.27,2.4,.45l-.31,1.06c-.5-.24-1.2-.42-2.04-.42-2.37,0-3.94,1.52-3.94,4.17,0,2.48,1.42,4.06,3.88,4.06,.79,0,1.6-.17,2.13-.42l.27,1.03Z"/><path class="cls-18" d="M200.35,28.58c0,.75,.01,1.41,.06,1.98h-1.17l-.07-1.19h-.03c-.34,.58-1.11,1.35-2.4,1.35-1.14,0-2.5-.63-2.5-3.18v-4.25h1.32v4.02c0,1.38,.42,2.31,1.62,2.31,.89,0,1.5-.61,1.74-1.2,.07-.19,.12-.44,.12-.67v-4.46h1.32v5.28Z"/><path class="cls-18" d="M202.54,25.56c0-.85-.01-1.59-.06-2.27h1.15l.04,1.42h.06c.33-.97,1.12-1.59,2.01-1.59,.15,0,.25,.02,.38,.04v1.25c-.13-.03-.27-.04-.45-.04-.93,0-1.59,.71-1.77,1.69-.03,.18-.06,.39-.06,.62v3.87h-1.31v-4.99Z"/><path class="cls-18" d="M208.98,21.26c.02,.45-.31,.81-.84,.81-.47,0-.79-.36-.79-.81s.34-.82,.82-.82,.81,.36,.81,.82Zm-1.47,9.3v-7.26h1.32v7.26h-1.32Z"/><path class="cls-18" d="M216.19,30.29c-.34,.18-1.11,.42-2.08,.42-2.19,0-3.62-1.48-3.62-3.7s1.53-3.85,3.9-3.85c.78,0,1.47,.19,1.83,.38l-.3,1.02c-.31-.18-.81-.35-1.53-.35-1.67,0-2.56,1.23-2.56,2.75,0,1.68,1.08,2.71,2.52,2.71,.75,0,1.25-.19,1.62-.36l.22,.99Z"/><path class="cls-18" d="M224.22,26.87c0,2.69-1.86,3.85-3.61,3.85-1.96,0-3.48-1.44-3.48-3.73,0-2.43,1.59-3.85,3.6-3.85s3.49,1.52,3.49,3.73Zm-5.76,.08c0,1.59,.92,2.79,2.21,2.79s2.21-1.18,2.21-2.82c0-1.23-.62-2.79-2.18-2.79s-2.23,1.44-2.23,2.82Zm4.19-6.78l-1.83,2.15h-.94l1.32-2.15h1.46Z"/><path class="cls-18" d="M224.67,32.4c.33-.88,.73-2.49,.9-3.58l1.47-.15c-.34,1.28-1,2.94-1.42,3.65l-.94,.09Z"/><path class="cls-18" d="M232.54,27.17c.03,1.78,1.17,2.52,2.49,2.52,.94,0,1.52-.17,2.01-.38l.23,.95c-.46,.21-1.26,.45-2.42,.45-2.23,0-3.57-1.47-3.57-3.66s1.29-3.92,3.4-3.92c2.37,0,3,2.08,3,3.42,0,.27-.03,.48-.04,.62h-5.1Zm3.87-.95c.02-.84-.34-2.15-1.83-2.15-1.33,0-1.92,1.23-2.02,2.15h3.85Z"/><path class="cls-18" d="M239.14,29.21c.39,.26,1.08,.52,1.74,.52,.96,0,1.41-.48,1.41-1.08,0-.63-.38-.98-1.35-1.33-1.3-.47-1.92-1.19-1.92-2.06,0-1.17,.94-2.13,2.5-2.13,.73,0,1.38,.21,1.79,.45l-.33,.96c-.29-.18-.81-.42-1.48-.42-.78,0-1.22,.45-1.22,.99,0,.6,.44,.87,1.38,1.23,1.26,.48,1.9,1.11,1.9,2.19,0,1.27-.99,2.17-2.71,2.17-.79,0-1.53-.19-2.04-.5l.33-1Z"/><path class="cls-18" d="M252.46,30.56l-.1-.92h-.04c-.41,.57-1.19,1.08-2.22,1.08-1.47,0-2.22-1.04-2.22-2.08,0-1.75,1.56-2.71,4.36-2.7v-.15c0-.6-.17-1.68-1.65-1.68-.67,0-1.38,.21-1.89,.54l-.3-.87c.6-.39,1.47-.65,2.39-.65,2.22,0,2.76,1.52,2.76,2.97v2.71c0,.63,.03,1.24,.12,1.74h-1.2Zm-.19-3.71c-1.44-.03-3.08,.23-3.08,1.64,0,.85,.57,1.26,1.25,1.26,.94,0,1.54-.6,1.75-1.21,.04-.13,.08-.29,.08-.42v-1.26Z"/><path class="cls-18" d="M261.75,28.58c0,.75,.01,1.41,.06,1.98h-1.17l-.07-1.19h-.03c-.34,.58-1.11,1.35-2.4,1.35-1.14,0-2.5-.63-2.5-3.18v-4.25h1.32v4.02c0,1.38,.42,2.31,1.62,2.31,.89,0,1.5-.61,1.74-1.2,.07-.19,.12-.44,.12-.67v-4.46h1.32v5.28Z"/><path class="cls-18" d="M265.53,21.21v2.08h1.89v1h-1.89v3.92c0,.9,.25,1.41,.99,1.41,.35,0,.6-.04,.77-.09l.06,.99c-.26,.1-.66,.18-1.17,.18-.62,0-1.11-.19-1.43-.55-.38-.39-.51-1.04-.51-1.89v-3.96h-1.12v-1h1.12v-1.74l1.29-.35Z"/><path class="cls-18" d="M275.38,26.87c0,2.69-1.86,3.85-3.61,3.85-1.96,0-3.48-1.44-3.48-3.73,0-2.43,1.59-3.85,3.6-3.85s3.49,1.52,3.49,3.73Zm-5.76,.08c0,1.59,.92,2.79,2.21,2.79s2.21-1.18,2.21-2.82c0-1.23-.62-2.79-2.18-2.79s-2.23,1.44-2.23,2.82Z"/><path class="cls-18" d="M277.05,25.56c0-.85-.01-1.59-.06-2.27h1.15l.04,1.42h.06c.33-.97,1.12-1.59,2.01-1.59,.15,0,.26,.02,.38,.04v1.25c-.13-.03-.27-.04-.45-.04-.93,0-1.59,.71-1.77,1.69-.03,.18-.06,.39-.06,.62v3.87h-1.31v-4.99Z"/><path class="cls-18" d="M283.48,21.26c.02,.45-.31,.81-.84,.81-.47,0-.79-.36-.79-.81s.34-.82,.82-.82,.81,.36,.81,.82Zm-1.47,9.3v-7.26h1.32v7.26h-1.32Z"/><path class="cls-18" d="M284.7,29.79l3.28-4.27c.31-.39,.62-.74,.95-1.12v-.03h-3.93v-1.06h5.54l-.02,.83-3.24,4.21c-.3,.4-.6,.76-.93,1.14v.03h4.24v1.05h-5.89v-.77Z"/><path class="cls-18" d="M295.96,30.56l-.1-.92h-.04c-.4,.57-1.19,1.08-2.22,1.08-1.47,0-2.22-1.04-2.22-2.08,0-1.75,1.56-2.71,4.36-2.7v-.15c0-.6-.17-1.68-1.65-1.68-.67,0-1.38,.21-1.89,.54l-.3-.87c.6-.39,1.47-.65,2.39-.65,2.22,0,2.76,1.52,2.76,2.97v2.71c0,.63,.03,1.24,.12,1.74h-1.2Zm-.19-3.71c-1.44-.03-3.08,.23-3.08,1.64,0,.85,.57,1.26,1.25,1.26,.94,0,1.54-.6,1.75-1.21,.04-.13,.08-.29,.08-.42v-1.26Z"/><path class="cls-18" d="M305.44,19.91v8.77c0,.65,.02,1.38,.06,1.88h-1.19l-.06-1.26h-.03c-.41,.81-1.29,1.42-2.48,1.42-1.75,0-3.1-1.48-3.1-3.69-.01-2.42,1.48-3.9,3.25-3.9,1.11,0,1.86,.52,2.19,1.11h.03v-4.33h1.32Zm-1.32,6.34c0-.17-.02-.39-.06-.56-.2-.84-.92-1.53-1.9-1.53-1.37,0-2.18,1.2-2.18,2.8,0,1.47,.72,2.69,2.15,2.69,.88,0,1.69-.58,1.94-1.58,.04-.18,.06-.36,.06-.57v-1.26Z"/><path class="cls-18" d="M314.2,26.87c0,2.69-1.86,3.85-3.61,3.85-1.96,0-3.48-1.44-3.48-3.73,0-2.43,1.59-3.85,3.6-3.85s3.49,1.52,3.49,3.73Zm-5.76,.08c0,1.59,.92,2.79,2.21,2.79s2.21-1.18,2.21-2.82c0-1.23-.62-2.79-2.18-2.79s-2.23,1.44-2.23,2.82Z"/><path class="cls-18" d="M323.07,30.56l-.1-.92h-.04c-.4,.57-1.19,1.08-2.22,1.08-1.47,0-2.22-1.04-2.22-2.08,0-1.75,1.56-2.71,4.36-2.7v-.15c0-.6-.17-1.68-1.65-1.68-.67,0-1.38,.21-1.89,.54l-.3-.87c.6-.39,1.47-.65,2.39-.65,2.22,0,2.76,1.52,2.76,2.97v2.71c0,.63,.03,1.24,.12,1.74h-1.2Zm-.19-3.71c-1.44-.03-3.08,.23-3.08,1.64,0,.85,.57,1.26,1.25,1.26,.94,0,1.54-.6,1.75-1.21,.04-.13,.08-.29,.08-.42v-1.26Z"/><path class="cls-18" d="M335.73,19.91v8.77c0,.65,.02,1.38,.06,1.88h-1.19l-.06-1.26h-.03c-.41,.81-1.29,1.42-2.48,1.42-1.75,0-3.1-1.48-3.1-3.69-.01-2.42,1.48-3.9,3.25-3.9,1.11,0,1.86,.52,2.19,1.11h.03v-4.33h1.32Zm-1.32,6.34c0-.17-.02-.39-.06-.56-.2-.84-.92-1.53-1.9-1.53-1.37,0-2.18,1.2-2.18,2.8,0,1.47,.72,2.69,2.15,2.69,.88,0,1.69-.58,1.94-1.58,.04-.18,.06-.36,.06-.57v-1.26Z"/><path class="cls-18" d="M338.65,27.17c.03,1.78,1.17,2.52,2.49,2.52,.94,0,1.52-.17,2.01-.38l.23,.95c-.46,.21-1.26,.45-2.42,.45-2.23,0-3.57-1.47-3.57-3.66s1.29-3.92,3.4-3.92c2.37,0,3,2.08,3,3.42,0,.27-.03,.48-.04,.62h-5.1Zm3.87-.95c.02-.84-.34-2.15-1.83-2.15-1.33,0-1.92,1.23-2.02,2.15h3.85Z"/><path class="cls-18" d="M345.25,29.21c.39,.26,1.08,.52,1.74,.52,.96,0,1.41-.48,1.41-1.08,0-.63-.38-.98-1.35-1.33-1.3-.47-1.92-1.19-1.92-2.06,0-1.17,.94-2.13,2.5-2.13,.73,0,1.38,.21,1.79,.45l-.33,.96c-.29-.18-.81-.42-1.48-.42-.78,0-1.22,.45-1.22,.99,0,.6,.44,.87,1.38,1.23,1.26,.48,1.9,1.11,1.9,2.19,0,1.27-.99,2.17-2.71,2.17-.79,0-1.53-.19-2.04-.5l.33-1Z"/><path class="cls-18" d="M356.55,30.29c-.34,.18-1.11,.42-2.08,.42-2.19,0-3.62-1.48-3.62-3.7s1.53-3.85,3.9-3.85c.78,0,1.47,.19,1.83,.38l-.3,1.02c-.31-.18-.81-.35-1.53-.35-1.67,0-2.56,1.23-2.56,2.75,0,1.68,1.08,2.71,2.52,2.71,.75,0,1.25-.19,1.62-.36l.22,.99Z"/><path class="cls-18" d="M358.74,27.17c.03,1.78,1.17,2.52,2.49,2.52,.94,0,1.52-.17,2.01-.38l.23,.95c-.46,.21-1.26,.45-2.42,.45-2.23,0-3.57-1.47-3.57-3.66s1.29-3.92,3.4-3.92c2.37,0,3,2.08,3,3.42,0,.27-.03,.48-.04,.62h-5.1Zm3.87-.95c.02-.84-.34-2.15-1.83-2.15-1.33,0-1.92,1.23-2.02,2.15h3.85Z"/><path class="cls-18" d="M365.52,25.26c0-.75-.01-1.36-.06-1.96h1.17l.07,1.2h.03c.36-.69,1.2-1.37,2.4-1.37,1,0,2.56,.6,2.56,3.09v4.33h-1.32v-4.19c0-1.17-.44-2.14-1.68-2.14-.87,0-1.54,.61-1.77,1.35-.06,.17-.09,.39-.09,.62v4.36h-1.32v-5.29Z"/><path class="cls-18" d="M376.9,26.01v.98h-3.7v-.98h3.7Z"/><path class="cls-18" d="M192.03,37.91v8.77c0,.65,.02,1.38,.06,1.88h-1.19l-.06-1.26h-.03c-.41,.81-1.29,1.42-2.48,1.42-1.75,0-3.1-1.48-3.1-3.69-.01-2.42,1.48-3.9,3.25-3.9,1.11,0,1.86,.52,2.19,1.11h.03v-4.33h1.32Zm-1.32,6.34c0-.17-.02-.39-.06-.56-.2-.84-.92-1.53-1.9-1.53-1.37,0-2.18,1.2-2.18,2.8,0,1.47,.72,2.69,2.15,2.69,.88,0,1.69-.58,1.94-1.58,.04-.18,.06-.36,.06-.57v-1.26Z"/><path class="cls-18" d="M194.95,45.17c.03,1.78,1.17,2.52,2.49,2.52,.94,0,1.52-.17,2.01-.38l.23,.95c-.46,.21-1.26,.45-2.42,.45-2.23,0-3.57-1.47-3.57-3.66s1.29-3.92,3.4-3.92c2.37,0,3,2.08,3,3.42,0,.27-.03,.48-.04,.62h-5.1Zm3.87-.95c.02-.84-.34-2.15-1.83-2.15-1.33,0-1.92,1.23-2.02,2.15h3.85Z"/><path class="cls-18" d="M201.73,43.56c0-.85-.01-1.59-.06-2.27h1.15l.04,1.42h.06c.33-.97,1.12-1.59,2.01-1.59,.15,0,.25,.02,.38,.04v1.25c-.13-.03-.27-.04-.45-.04-.93,0-1.59,.71-1.77,1.69-.03,.18-.06,.39-.06,.62v3.87h-1.31v-4.99Z"/><path class="cls-18" d="M205.53,47.78c0-.56,.38-.95,.9-.95s.88,.39,.88,.95-.35,.94-.9,.94c-.52,0-.89-.4-.89-.94Z"/></g><text class="cls-19" transform="translate(364.66 167.27)"><tspan class="cls-22" x="0" y="0">S</tspan><tspan x="7.48" y="0">e c</tspan><tspan class="cls-27" x="24.9" y="0">r</tspan><tspan x="29.65" y="0">ee que e</tspan><tspan class="cls-24" x="82.78" y="0">n</tspan><tspan x="91.05" y="0">t</tspan><tspan class="cls-29" x="96.01" y="0">r</tspan><tspan x="100.84" y="0">a a una nube y </tspan><tspan class="cls-20" x="0" y="18">c</tspan><tspan x="6.63" y="18">omienza a pe</tspan><tspan class="cls-27" x="90.01" y="18">r</tspan><tspan x="94.77" y="18">der el rumbo</tspan></text><text class="cls-19" transform="translate(665.66 236.56)"><tspan x="0" y="0">El pilo</tspan><tspan class="cls-20" x="37.92" y="0">t</tspan><tspan x="42.79" y="0">o </tspan><tspan class="cls-23" x="54.21" y="0">I</tspan><tspan class="cls-24" x="57.94" y="0">n</tspan><tspan class="cls-20" x="66.21" y="0">t</tspan><tspan x="71.08" y="0">e</tspan><tspan class="cls-24" x="78.6" y="0">n</tspan><tspan x="86.86" y="0">ta ob</tspan><tspan class="cls-20" x="119.01" y="0">t</tspan><tspan x="123.88" y="0">ener altu</tspan><tspan class="cls-28" x="179.32" y="0">r</tspan><tspan x="184.15" y="0">a pe</tspan><tspan class="cls-27" x="210.61" y="0">r</tspan><tspan x="215.36" y="0">o el a </tspan><tspan x="0" y="18">la de</tspan><tspan class="cls-27" x="29.92" y="18">r</tspan><tspan x="34.68" y="18">echa choca </tspan><tspan class="cls-20" x="108.06" y="18">c</tspan><tspan x="114.69" y="18">on una pa</tspan><tspan class="cls-1" x="177.19" y="18">r</tspan><tspan class="cls-21" x="182.46" y="18">t</tspan><tspan x="187.33" y="18">e de la </tspan><tspan x="0" y="36">mo</tspan><tspan class="cls-24" x="20.74" y="36">n</tspan><tspan x="29.01" y="36">taña.</tspan></text><text class="cls-19" transform="translate(425.66 571.56)"><tspan x="0" y="0">La </tspan><tspan class="cls-20" x="17.49" y="0">c</tspan><tspan x="24.12" y="0">ola y el fuselaje se </tspan><tspan x="0" y="18">sepa</tspan><tspan class="cls-29" x="29.22" y="18">r</tspan><tspan x="34.05" y="18">an, algunos pasaje</tspan><tspan class="cls-27" x="149.08" y="18">r</tspan><tspan x="153.84" y="18">os </tspan><tspan x="0" y="36">son desp</tspan><tspan class="cls-27" x="56.13" y="36">r</tspan><tspan x="60.88" y="36">endidos .</tspan></text><text class="cls-19" transform="translate(607.66 657.56)"><tspan x="0" y="0">El fuselaje cae unos met</tspan><tspan class="cls-27" x="148.89" y="0">r</tspan><tspan x="153.64" y="0">os </tspan><tspan x="0" y="18">má</tspan><tspan class="cls-25" x="19.74" y="18">s</tspan><tspan class="cls-26" x="25.51" y="18">, es deslizado a </tspan><tspan class="cls-20" x="121.33" y="18">g</tspan><tspan class="cls-29" x="129.63" y="18">r</tspan><tspan x="134.46" y="18">an </tspan><tspan class="cls-27" x="0" y="36">v</tspan><tspan x="7.06" y="36">elocida</tspan><tspan class="cls-27" x="52.27" y="36">d</tspan><tspan x="60.58" y="36">.</tspan></text></g></svg>