<?xml version="1.0" encoding="UTF-8"?><svg xmlns="http://www.w3.org/2000/svg" viewBox="0 0 1829 1957.93"><defs><style>.cls-1{stroke:#b9e4c9;stroke-width:3px;}.cls-1,.cls-2,.cls-3,.cls-4,.cls-5,.cls-6{fill:none;stroke-miterlimit:10;}.cls-7,.cls-8{font-size:17px;}.cls-7,.cls-8,.cls-9,.cls-10{font-family:MyriadPro-Regular, 'Myriad Pro';}.cls-7,.cls-9{fill:#379570;}.cls-8,.cls-10{fill:#fd5624;}.cls-11{letter-spacing:0em;}.cls-12{letter-spacing:0em;}.cls-13{letter-spacing:0em;}.cls-14{fill:#b9e4c9;}.cls-15{letter-spacing:-.01em;}.cls-16{letter-spacing:-.02em;}.cls-2{stroke:#379570;stroke-width:5px;}.cls-17{letter-spacing:0em;}.cls-18{letter-spacing:-.01em;}.cls-19{letter-spacing:0em;}.cls-20{letter-spacing:0em;}.cls-3,.cls-4,.cls-5,.cls-6{stroke:#fd5624;}.cls-3,.cls-4,.cls-6{stroke-width:2px;}.cls-21{letter-spacing:0em;}.cls-22{letter-spacing:0em;}.cls-23{letter-spacing:0em;}.cls-24{letter-spacing:0em;}.cls-4{stroke-dasharray:0 5;}.cls-25{letter-spacing:.01em;}.cls-26{letter-spacing:0em;}.cls-9{font-size:23px;}.cls-27{letter-spacing:0em;}.cls-28{letter-spacing:0em;}.cls-29{letter-spacing:-.03em;}.cls-30{letter-spacing:-.03em;}.cls-31{letter-spacing:-.03em;}.cls-6{stroke-dasharray:0 0 5.14 5.14;}.cls-32{letter-spacing:.01em;}.cls-33{letter-spacing:-.05em;}.cls-10{font-size:18px;}.cls-34{letter-spacing:-.03em;}</style></defs><g id="Capa_4"><circle class="cls-14" cx="821" cy="1652" r="19"/><circle class="cls-14" cx="1507" cy="1650" r="19"/></g><g id="Capa_5"><text class="cls-9" transform="translate(815.09 1661.54)"><tspan x="0" y="0">4</tspan></text><path class="cls-1" d="M1181.89,1608l470-266v-155.66s-43.5,8.16-66.5,14.16-61,26-61,26l-18.88,20.7-28.12,52.3s-34,48.41-60.5,42.7-54.5-13.7-54.5-13.7l-27,9-6,65-26,48-54,45-26,36-41.5,27.1-348.77-203.6v52.9l348.77,200.1Z"/><path class="cls-2" d="M1178.45,1172s-29.46,43-43.02,38-20.14-7.89-20.14-7.89c0,0-37.41-5.11-37.41,16.89s-11.91,32.95-11.91,32.95c0,0-25.59,17.26-18.09,29.4s25,52.82,25,52.82c0,0,7.5,6.33,0,20.83s0,34,0,34c0,0,4.5,31.5,18,37"/><path class="cls-4" d="M1352.89,1162.79s23.59-52.21-12.45-62.25"/><path class="cls-4" d="M1275.77,1100.54s-25.39,44.96-53.39,38.96"/><path class="cls-1" d="M1631.52,1190.31l-96.13-60.81-38.9-5.12-57.1-52.88-37-13-32-9-30-11-62-40-35.89,19.1-45.11,20.9-45,33-18,30-46.23-7.09-37.77,21.09-47,23-39,63s-2,51-19,58-29,35-29,35l-46,40-37.27,20.5"/><circle class="cls-14" cx="1304.89" cy="1091" r="19"/><circle class="cls-14" cx="1194.89" cy="1153" r="19"/><circle class="cls-14" cx="1333.89" cy="1196" r="19"/><circle class="cls-14" cx="1099.89" cy="1191" r="19"/><circle class="cls-14" cx="1066.89" cy="1308" r="19"/><circle class="cls-14" cx="1072.89" cy="1408" r="19"/><g><line class="cls-3" x1="1346.89" y1="1225" x2="1347.65" y2="1227.38"/><polyline class="cls-6" points="1349.23 1232.27 1356.89 1256 1374.89 1276 1401.89 1293 1434.43 1310.59"/><line class="cls-3" x1="1436.69" y1="1311.81" x2="1438.89" y2="1313"/></g><circle class="cls-4" cx="1333.39" cy="1195.5" r="28.5"/><text class="cls-8" transform="translate(1370.04 1183.48)"><tspan x="0" y="0">Choque</tspan></text><text class="cls-8" transform="translate(1340.04 1093.48)"><tspan class="cls-18" x="0" y="0">C</tspan><tspan x="9.67" y="0">ola</tspan></text><text class="cls-8" transform="translate(1199.05 1188.48)"><tspan class="cls-31" x="0" y="0">F</tspan><tspan x="7.68" y="0">uselaje</tspan></text><text class="cls-7" transform="translate(975.05 1249.48)"><tspan x="0" y="0">Glaciar</tspan></text><text class="cls-7" transform="translate(954.05 1386.48)"><tspan class="cls-19" x="0" y="0">R</tspan><tspan x="9.32" y="0">ío </tspan><tspan class="cls-25" x="0" y="20.4">A</tspan><tspan x="10.64" y="20.4">zuf</tspan><tspan class="cls-27" x="32.25" y="20.4">r</tspan><tspan x="37.64" y="20.4">e</tspan></text><text class="cls-7" transform="translate(1249.05 1332.07)"><tspan class="cls-30" x="0" y="0">V</tspan><tspan x="8.93" y="0">olcan </tspan><tspan class="cls-15" x="0" y="20.4">T</tspan><tspan x="8.25" y="20.4">ingui</tspan><tspan class="cls-12" x="44.5" y="20.4">r</tspan><tspan x="50.13" y="20.4">i</tspan><tspan class="cls-27" x="54.11" y="20.4">r</tspan><tspan x="59.5" y="20.4">ca</tspan></text><polyline class="cls-5" points="1625.39 1370 1662.39 1347.5 1664.88 1172 1617.27 1180.79"/><line class="cls-5" x1="1664.88" y1="1221.07" x2="1679.34" y2="1221.07"/><line class="cls-5" x1="1664.88" y1="1172.07" x2="1679.34" y2="1172.07"/><line class="cls-5" x1="1663.88" y1="1259.07" x2="1678.34" y2="1259.07"/><line class="cls-5" x1="1662.88" y1="1301.07" x2="1677.34" y2="1301.07"/><line class="cls-5" x1="1662.88" y1="1347.07" x2="1677.34" y2="1347.07"/><text class="cls-10" transform="translate(1685.12 1178.45)"><tspan x="0" y="0">4.000 m</tspan></text><text class="cls-10" transform="translate(1685.12 1227.45)"><tspan x="0" y="0">3.000 m</tspan></text><text class="cls-10" transform="translate(1685.12 1265.45)"><tspan x="0" y="0">2.000 m</tspan></text><text class="cls-10" transform="translate(1684.12 1304.45)"><tspan x="0" y="0">1.000 m</tspan></text><text class="cls-10" transform="translate(1685.12 1352.45)"><tspan class="cls-20" x="0" y="0">N</tspan><tspan x="12.02" y="0">i</tspan><tspan class="cls-28" x="16.24" y="0">v</tspan><tspan x="24.71" y="0">el del mar</tspan></text><text class="cls-9" transform="translate(1327.98 1205.54)"><tspan x="0" y="0">1</tspan></text><text class="cls-9" transform="translate(1298.98 1100.54)"><tspan x="0" y="0">2</tspan></text><text class="cls-9" transform="translate(1188.98 1162.54)"><tspan x="0" y="0">3</tspan></text><text class="cls-9" transform="translate(1093.98 1200.54)"><tspan x="0" y="0">4</tspan></text><text class="cls-9" transform="translate(1059.98 1316.54)"><tspan x="0" y="0">5</tspan></text><text class="cls-9" transform="translate(1065.98 1416.54)"><tspan x="0" y="0">6</tspan></text><text class="cls-9" transform="translate(1500.09 1658.54)"><tspan x="0" y="0">6</tspan></text><text class="cls-7" transform="translate(857.11 1651.37)"><tspan class="cls-24" x="0" y="0">C</tspan><tspan x="9.74" y="0">anessa y </tspan><tspan class="cls-34" x="72.76" y="0">P</tspan><tspan x="81.36" y="0">a</tspan><tspan class="cls-11" x="89.56" y="0">r</tspan><tspan class="cls-26" x="95.18" y="0">r</tspan><tspan x="100.66" y="0">ado llegan a la </tspan><tspan x="0" y="20.4">cumb</tspan><tspan class="cls-27" x="40.83" y="20.4">r</tspan><tspan class="cls-15" x="46.22" y="20.4">e</tspan><tspan x="54.54" y="20.4">, bajan </tspan><tspan class="cls-13" x="104.89" y="20.4">c</tspan><tspan x="112.4" y="20.4">on cue</tspan><tspan class="cls-27" x="160.28" y="20.4">r</tspan><tspan x="165.66" y="20.4">das y </tspan><tspan x="0" y="40.8">siguen por el </tspan><tspan class="cls-22" x="95.44" y="40.8">v</tspan><tspan x="103.55" y="40.8">alle de nie</tspan><tspan class="cls-27" x="175.52" y="40.8">v</tspan><tspan class="cls-15" x="183.53" y="40.8">e</tspan><tspan x="191.84" y="40.8">.</tspan></text><g><circle class="cls-14" cx="1160" cy="1652" r="19"/><text class="cls-9" transform="translate(1153.09 1660.54)"><tspan x="0" y="0">5</tspan></text><text class="cls-7" transform="translate(1187.11 1648.37)"><tspan class="cls-29" x="0" y="0">V</tspan><tspan x="8.92" y="0">en por p</tspan><tspan class="cls-12" x="68.32" y="0">r</tspan><tspan x="73.95" y="0">ime</tspan><tspan class="cls-26" x="100.62" y="0">r</tspan><tspan x="106.1" y="0">a </tspan><tspan class="cls-27" x="117.9" y="0">v</tspan><tspan x="125.9" y="0">ez </tspan><tspan class="cls-26" x="145.3" y="0">r</tspan><tspan x="150.77" y="0">ast</tspan><tspan class="cls-27" x="171.33" y="0">r</tspan><tspan x="176.72" y="0">os de </tspan><tspan class="cls-27" x="0" y="20.4">v</tspan><tspan x="8.01" y="20.4">egetación , </tspan><tspan class="cls-22" x="89.45" y="20.4">v</tspan><tspan x="97.56" y="20.4">an en di</tspan><tspan class="cls-27" x="153.92" y="20.4">r</tspan><tspan x="159.31" y="20.4">e</tspan><tspan class="cls-17" x="167.82" y="20.4">c</tspan><tspan x="175.34" y="20.4">ción </tspan><tspan x="0" y="40.8">oes</tspan><tspan class="cls-17" x="24.58" y="40.8">t</tspan><tspan x="30.11" y="40.8">e del </tspan><tspan class="cls-11" x="67.95" y="40.8">r</tspan><tspan x="73.58" y="40.8">í</tspan><tspan class="cls-16" x="77.55" y="40.8">o</tspan><tspan x="86.48" y="40.8">.</tspan></text></g><text class="cls-7" transform="translate(1534.11 1648.37)"><tspan class="cls-29" x="0" y="0">V</tspan><tspan x="8.92" y="0">en animale</tspan><tspan class="cls-18" x="86.99" y="0">s</tspan><tspan x="93.53" y="0">, por lo que piensan que </tspan><tspan x="0" y="20.4">debe haber ge</tspan><tspan class="cls-22" x="102.9" y="20.4">n</tspan><tspan class="cls-17" x="112.27" y="20.4">t</tspan><tspan x="117.79" y="20.4">e en el se</tspan><tspan class="cls-32" x="182.85" y="20.4">c</tspan><tspan class="cls-17" x="190.69" y="20.4">t</tspan><tspan x="196.21" y="20.4">o</tspan><tspan class="cls-33" x="205.55" y="20.4">r</tspan><tspan x="210.2" y="20.4">.</tspan><tspan class="cls-11" x="0" y="40.8">R</tspan><tspan x="9.21" y="40.8">e</tspan><tspan class="cls-17" x="17.73" y="40.8">c</tspan><tspan x="25.25" y="40.8">ono</tspan><tspan class="cls-13" x="53.35" y="40.8">c</tspan><tspan x="60.86" y="40.8">en a un homb</tspan><tspan class="cls-27" x="159.24" y="40.8">r</tspan><tspan x="164.63" y="40.8">e en caballo y </tspan><tspan x="0" y="61.2">piden </tspan><tspan class="cls-21" x="44.79" y="61.2">a</tspan><tspan x="52.85" y="61.2">yuda. Dan </tspan><tspan class="cls-23" x="127.69" y="61.2">a</tspan><tspan x="135.74" y="61.2">viso de que son los </tspan><tspan x="0" y="81.6">Urugu</tspan><tspan class="cls-21" x="44.79" y="81.6">a</tspan><tspan class="cls-27" x="52.85" y="81.6">y</tspan><tspan x="60.69" y="81.6">os del a</tspan><tspan class="cls-17" x="114.27" y="81.6">c</tspan><tspan x="121.79" y="81.6">cide</tspan><tspan class="cls-22" x="151.49" y="81.6">n</tspan><tspan class="cls-17" x="160.85" y="81.6">t</tspan><tspan class="cls-15" x="166.38" y="81.6">e</tspan><tspan x="174.69" y="81.6">.</tspan></text></g></svg>